<?xml version="1.0" encoding="UTF-8"?>
<svg id="Camada_2" data-name="Camada 2" xmlns="http://www.w3.org/2000/svg" viewBox="0 0 67.74 67.74">
  <defs>
    <style>
      .cls-1 {
        fill: #060a09;
      }

      .cls-2 {
        fill: #f3efe4;
      }
    </style>
  </defs>
  <g id="colorless">
    <circle class="cls-2" cx="33.87" cy="33.87" r="33.87"/>
    <path class="cls-1" d="M55.07,46.52l-10.19-1.01c-2.87-.29-5.6,1.32-6.74,3.97l-4.04,9.41-4.22-9.33c-1.19-2.63-3.94-4.19-6.81-3.85l-10.17,1.2,5.97-8.32c1.68-2.34,1.65-5.51-.07-7.82l-6.13-8.21,10.19,1.01c2.87,.29,5.6-1.32,6.74-3.97l4.04-9.41,4.22,9.33c1.19,2.63,3.94,4.19,6.81,3.85l10.17-1.2-5.97,8.32c-1.68,2.34-1.65,5.51,.07,7.82l6.13,8.21Z"/>
  </g>
</svg>