<?xml version="1.0" encoding="UTF-8"?>
<svg id="Camada_2" data-name="Camada 2" xmlns="http://www.w3.org/2000/svg" viewBox="0 0 67.06 67.06">
  <defs>
    <style>
      .cls-1 {
        fill: none;
        stroke: #b1992d;
        stroke-miterlimit: 10;
      }

      .cls-2 {
        fill: #d2509a;
      }

      .cls-3 {
        fill: #0e0c0d;
      }
    </style>
  </defs>
  <g id="fairy">
    <circle class="cls-2" cx="33.53" cy="33.53" r="33.53"/>
    <path class="cls-3" d="M32.97,58.16s-4.45-13.94-15.29-19.16c-6-4.06-7.35-7.94-5.23-21.68,0,0-9.88,9.59-3.1,27.16,5.55,13.81,23.61,13.68,23.61,13.68Z"/>
    <path class="cls-3" d="M32.97,58.16s4.45-13.94,15.29-19.16c6-4.06,7.35-7.94,5.23-21.68,0,0,9.88,9.59,3.1,27.16-5.55,13.81-23.61,13.68-23.61,13.68Z"/>
    <path class="cls-1" d="M32.2,9.2h0"/>
    <path class="cls-3" d="M43.81,19.16s-10.45,6.1-11.61,15.78c-1.17-9.68-11.62-15.78-11.62-15.78,11.53-.96,11.62-9.7,11.62-9.96,0,.29,.1,9.01,11.61,9.96Z"/>
    <path class="cls-1" d="M32.2,9.2h0"/>
  </g>
</svg>