<?xml version="1.0" encoding="UTF-8"?>
<svg id="Camada_2" data-name="Camada 2" xmlns="http://www.w3.org/2000/svg" viewBox="0 0 67.74 67.74">
  <defs>
    <style>
      .cls-1 {
        fill: #de5b2d;
      }

      .cls-2 {
        fill: #180100;
      }
    </style>
  </defs>
  <g id="fighting">
    <circle class="cls-1" cx="33.87" cy="33.87" r="33.87"/>
    <rect class="cls-2" x="10.76" y="12.68" width="9.55" height="19.19" rx="1.85" ry="1.85"/>
    <rect class="cls-2" x="47.83" y="12.68" width="9.55" height="19.19" rx="1.85" ry="1.85"/>
    <rect class="cls-2" x="23.06" y="9.68" width="9.55" height="22.19" rx="1.99" ry="1.99"/>
    <rect class="cls-2" x="35.54" y="9.68" width="9.55" height="22.19" rx="1.99" ry="1.99"/>
    <path class="cls-2" d="M24.96,46.35l-.06,4.61c-.02,1.47-1.21,2.65-2.68,2.65H13.24c-1.36,0-2.48-1.12-2.48-2.48v-13.91c0-1.36,1.12-2.48,2.48-2.48h18.91c1.36,0,2.48,1.12,2.48,2.48v4.05c0,1.6-1.3,2.9-2.9,2.9h-3.9q-2.77,0-2.87,2.18Z"/>
    <path class="cls-2" d="M54.49,34.35h-13.33c-1.36,0-2.48,1.12-2.48,2.48v8.05c0,1.3-1.05,2.35-2.35,2.35h-5.83c-1.14,0-2.06,.92-2.06,2.06v5.42c-1.42,1.3-3.09,2.38-5.21,3.06-.31,.11-.53,.39-.53,.72v2.67h22.39v-4.1c0-1.91,1.54-3.45,3.45-3.45h5.95c1.37,0,2.48-1.11,2.48-2.48v-14.3c0-1.36-1.11-2.48-2.48-2.48Z"/>
  </g>
</svg>