<?xml version="1.0" encoding="UTF-8"?>
<svg id="Camada_2" data-name="Camada 2" xmlns="http://www.w3.org/2000/svg" viewBox="0 0 67.74 67.74">
  <defs>
    <style>
      .cls-1 {
        fill: #e64320;
      }

      .cls-2 {
        fill: #ea442a;
      }

      .cls-3 {
        fill: #0b0704;
      }
    </style>
  </defs>
  <g id="fire">
    <circle class="cls-1" cx="33.87" cy="33.87" r="33.87"/>
    <path class="cls-3" d="M42,32.55s4.6-19.48-11.44-27.03c0,0,2.54,6.13,1.76,7.94s-17.68,13.29-12.13,21.55c0,0-6.84-.84-3.35-14.74,0,0-14.71,10.61-1.81,26.35,0,0-4.39-.13-8.77-4.39,0,0,4.13,19.74,25.81,20s29.42-21.29,28.9-24.13c0,0-3.35,5.42-12.65,5.94,0,0,14.32-8.52,7.1-18.58,0,0-3.1,8.65-13.42,7.1Z"/>
    <path class="cls-2" d="M31.81,60.68s16.13,.65,10.32-7.74c-1.68-4.52,.65-7.61,2.06-8.13,0,0-4-1.16-7.1,2.84,0,0-2.45-5.29-4-6.32s2.19-5.29,2.19-5.29c0,0-8,.39-9.29,6.06-.39,3.1,5.55,3.48,2.45,7.48-1.42,1.81-2.97-4.9-5.42-2.84,0,0,1.81,2.45,1.29,4.13-.9,1.16-2.97,2.06-2.58,4.39s5.27,5.66,10.06,5.42Z"/>
  </g>
</svg>