<?xml version="1.0" encoding="UTF-8"?>
<svg id="Camada_2" data-name="Camada 2" xmlns="http://www.w3.org/2000/svg" viewBox="0 0 67.74 67.74">
  <defs>
    <style>
      .cls-1 {
        fill: #0f0601;
      }

      .cls-2 {
        fill: #1ba244;
      }
    </style>
  </defs>
  <g id="leaf">
    <g>
      <circle class="cls-2" cx="33.87" cy="33.87" r="33.87"/>
      <path class="cls-1" d="M32.71,62.32v-6.39c-.55,.96,24.82-1.74,26.52-15.48,1.34-10.84-3.26-20.61-15.1-34.84,0,0-38.52,11.42-34.65,37.35,1.16,6.39,15.1,10.65,15.29,12.19s0,7.16,0,7.16h7.94Z"/>
      <path class="cls-2" d="M29.61,55.16v-7.35s6.97-6.39,19.94-5.03c0,0-2.52-4.45-18.97-1.16l.58-5.61s7.74-5.81,18.39-3.48c0,0-2.52-5.03-17.03-1.74,0,0,3.68-8.71,15.68-7.35,0,0-5.81-3.96-12.39-.14l3.77-12.05-7.26,11.81s-5.42-4.45-9.48-2.32c0,0,4.26,2.13,6.77,4.45l-.97,5.81s-4.82-5.46-11.61-1.94c0,0,7.55,2.32,9.68,4.94l-.58,6.29s-6.39-4.26-12.19-1.35c0,0,6.77,1.94,11.23,5.42l1.94,10.84h2.52Z"/>
    </g>
  </g>
</svg>