<?xml version="1.0" encoding="UTF-8"?>
<svg id="Camada_2" data-name="Camada 2" xmlns="http://www.w3.org/2000/svg" viewBox="0 0 67.74 67.74">
  <defs>
    <style>
      .cls-1 {
        fill: #989fa9;
      }

      .cls-2 {
        fill: #090907;
      }
    </style>
  </defs>
  <g id="metal">
    <circle class="cls-1" cx="33.87" cy="33.87" r="33.87"/>
    <polygon class="cls-2" points="33 50.79 26.08 37.88 19.16 24.97 33.85 25.4 48.54 25.84 40.77 38.31 33 50.79"/>
    <path class="cls-2" d="M26.72,19.12h-8.71s-5.98,8.77-4.69,10.06c3.68,5.61,3.89,7.32,3.89,7.32l-7.45,.03-3.94-8.61L14.14,13.7h10.06l2.52,5.42Z"/>
    <path class="cls-2" d="M42.03,19.12h8.71s5.98,8.77,4.69,10.06c-3.68,5.61-3.89,7.32-3.89,7.32l7.45,.03,3.94-8.61-8.32-14.23h-10.06s-2.52,5.42-2.52,5.42Z"/>
    <path class="cls-2" d="M44.23,48.71l-4.33,7.55s-10.59,.82-11.07-.94c-3.04-5.98-4.42-7.02-4.42-7.02l-3.73,6.44,5.51,7.7,16.48-.14,5.01-8.73-3.45-4.88Z"/>
  </g>
</svg>