<?xml version="1.0" encoding="UTF-8"?>
<svg id="Camada_2" data-name="Camada 2" xmlns="http://www.w3.org/2000/svg" viewBox="0 0 67.74 67.74">
  <defs>
    <style>
      .cls-1 {
        fill: #000005;
      }

      .cls-2 {
        fill: #865195;
      }

      .cls-3 {
        fill: #030d04;
      }

      .cls-4 {
        fill: #8e5a9c;
      }
    </style>
  </defs>
  <g id="psychic">
    <circle class="cls-4" cx="33.87" cy="33.87" r="33.87"/>
    <path class="cls-1" d="M63.29,37.68c.27-.05-7.35-23.28-29.42-23.23C11.53,13.14,4.19,37.68,4.19,37.68c0,0,7.28,20.42,29.55,20.39,20.26,0,29.84-20.84,29.55-20.39Z"/>
    <path class="cls-4" d="M33.87,20.43s15.87-1.59,23.29,16.41c0,0-5.35,14.06-23.42,15.1-13.36,.58-23.81-14.58-23.81-14.58,0,0,6.71-17.4,23.94-16.93Z"/>
    <circle class="cls-3" cx="33.87" cy="34.94" r="14.51"/>
    <path class="cls-2" d="M33.87,27.11c-.8,0-1.57,.15-2.28,.4-.04-.02-.08-.05-.12-.07l-.07,.14s-.03,0-.04,.01c4.66,3.09,1.8,10.06-4,8.11,0,.04,.03,.07,.04,.1l-.04,.08s.05,.02,.08,.03c.86,2.74,3.4,4.73,6.43,4.73,3.74,0,6.77-3.03,6.77-6.77s-3.03-6.76-6.77-6.76Z"/>
  </g>
</svg>