<?xml version="1.0" encoding="UTF-8"?>
<svg id="Camada_2" data-name="Camada 2" xmlns="http://www.w3.org/2000/svg" viewBox="0 0 104.28 24.58">
  <defs>
    <style>
      .cls-1 {
        fill: #d6e6bf;
      }

      .cls-2 {
        fill: #dea35a;
      }

      .cls-3 {
        fill: #9c5a4e;
      }

      .cls-3, .cls-4 {
        stroke: #1d1d1b;
      }

      .cls-3, .cls-4, .cls-5 {
        stroke-miterlimit: 10;
        stroke-width: 2px;
      }

      .cls-6 {
        fill: #f3cdb7;
      }

      .cls-4 {
        fill: #fccb82;
      }

      .cls-7 {
        fill: #b96a6b;
      }

      .cls-5 {
        fill: #97c08e;
        stroke: #000;
      }

      .cls-8 {
        fill: #729368;
      }

      .cls-9 {
        fill: #ffeac2;
      }
    </style>
  </defs>
  <g>
    <circle class="cls-3" cx="12.29" cy="12.29" r="11.29"/>
    <path class="cls-6" d="M11.4,7.92s-4.87,.98-4.29,4.86-4.92,3.67-2.85-2.62S11.61,3.98,11.61,3.98c0,0,2.12-.08,2.46,1.75s-2.66,2.18-2.66,2.18Z"/>
    <path class="cls-7" d="M16.9,13.27s-.98,4.87-4.86,4.29-3.67,4.92,2.62,2.85,6.17-7.34,6.17-7.34c0,0,.08-2.12-1.75-2.46-1.83-.34-2.18,2.66-2.18,2.66Z"/>
  </g>
  <g>
    <circle class="cls-4" cx="52.14" cy="12.29" r="11.29"/>
    <path class="cls-9" d="M51.25,7.92s-4.87,.98-4.29,4.86-4.92,3.67-2.85-2.62,7.34-6.17,7.34-6.17c0,0,2.12-.08,2.46,1.75s-2.66,2.18-2.66,2.18Z"/>
    <path class="cls-2" d="M56.75,13.27s-.98,4.87-4.86,4.29-3.67,4.92,2.62,2.85,6.17-7.34,6.17-7.34c0,0,.08-2.12-1.75-2.46-1.83-.34-2.18,2.66-2.18,2.66Z"/>
  </g>
  <g>
    <circle class="cls-5" cx="91.99" cy="12.29" r="11.29"/>
    <path class="cls-1" d="M91.1,7.92s-4.87,.98-4.29,4.86-4.92,3.67-2.85-2.62,7.34-6.17,7.34-6.17c0,0,2.12-.08,2.46,1.75s-2.66,2.18-2.66,2.18Z"/>
    <path class="cls-8" d="M96.6,13.27s-.98,4.87-4.86,4.29-3.67,4.92,2.62,2.85,6.17-7.34,6.17-7.34c0,0,.08-2.12-1.75-2.46-1.83-.34-2.18,2.66-2.18,2.66Z"/>
  </g>
</svg>