<svg xmlns="http://www.w3.org/2000/svg" xmlns:xlink="http://www.w3.org/1999/xlink" viewBox="0 0 285.21 53.19"><defs><style>.cls-1{fill:#e3e0c1;}.cls-2{fill:#692d2b;}.cls-3{fill:url(#Gradiente_sem_nome_28);}.cls-4{fill:url(#Gradiente_sem_nome_28-2);}.cls-5{fill:url(#Gradiente_sem_nome_28-3);}.cls-6{fill:url(#Gradiente_sem_nome_28-4);}.cls-7{fill:url(#Gradiente_sem_nome_28-5);}.cls-8{fill:url(#Gradiente_sem_nome_28-6);}.cls-9{fill:url(#Gradiente_sem_nome_28-7);}.cls-10{fill:url(#Gradiente_sem_nome_28-8);}.cls-11{fill:url(#Gradiente_sem_nome_28-9);}.cls-12{fill:#5694ab;}.cls-13{fill:#87c3cf;}.cls-14{fill:#5b7195;opacity:0.89;}</style><linearGradient id="Gradiente_sem_nome_28" x1="227.92" y1="38.63" x2="227.92" y2="17.88" gradientUnits="userSpaceOnUse"><stop offset="0" stop-color="#87c3cf"/><stop offset="1" stop-color="#5694ab"/></linearGradient><linearGradient id="Gradiente_sem_nome_28-2" x1="258.51" y1="38.63" x2="258.51" y2="17.87" xlink:href="#Gradiente_sem_nome_28"/><linearGradient id="Gradiente_sem_nome_28-3" x1="243.26" y1="38.63" x2="243.26" y2="17.87" xlink:href="#Gradiente_sem_nome_28"/><linearGradient id="Gradiente_sem_nome_28-4" x1="169.37" y1="38.63" x2="169.37" y2="17.87" xlink:href="#Gradiente_sem_nome_28"/><linearGradient id="Gradiente_sem_nome_28-5" x1="168.56" y1="38.62" x2="168.56" y2="17.88" xlink:href="#Gradiente_sem_nome_28"/><linearGradient id="Gradiente_sem_nome_28-6" x1="197.79" y1="38.63" x2="197.79" y2="17.88" xlink:href="#Gradiente_sem_nome_28"/><linearGradient id="Gradiente_sem_nome_28-7" x1="142.22" y1="38.62" x2="142.22" y2="17.88" xlink:href="#Gradiente_sem_nome_28"/><linearGradient id="Gradiente_sem_nome_28-8" x1="111.73" y1="38.62" x2="111.73" y2="17.87" xlink:href="#Gradiente_sem_nome_28"/><linearGradient id="Gradiente_sem_nome_28-9" x1="81.23" y1="38.62" x2="81.23" y2="17.87" xlink:href="#Gradiente_sem_nome_28"/></defs><title>logo</title><g id="Display"><polygon class="cls-1" points="96.48 18.66 89.44 12.7 63.64 12.52 63.28 44.28 81.14 44.46 81.14 39.4 89.08 39.59 93.59 36.16 93.59 37.06 103.34 45 119.58 45.18 124.27 41.57 124.27 45.18 206 45.9 213.04 40.13 220.25 46.08 256.16 46.44 258.51 43.91 260.85 46.44 284.49 46.62 270.96 30.74 285.21 14.87 261.57 14.51 259.23 16.85 257.06 14.32 220.8 14.14 213.4 20.1 206.18 13.96 180.02 13.78 179.84 6.57 159.09 9.45 158.91 13.24 124.45 13.06 124.45 16.67 120.12 12.88 103.88 12.7 96.48 18.66"/><polyline class="cls-2" points="64.18 43.73 64.36 13.42 88.9 13.6 96.48 19.92 104.06 13.78 119.94 13.78 125.17 18.47 125.17 13.96 159.81 14.32 159.81 10.36 179.12 7.47 179.12 14.51 206 14.69 213.4 21.18 220.98 14.87 256.16 15.23 258.87 18.29 261.57 15.41 283.23 15.59 269.69 30.56 283.05 45.9 261.03 45.9 258.51 42.83 255.98 45.72 220.62 45.36 213.22 39.04 205.64 45.18 125.17 44.28 124.99 39.95 119.58 44.28 103.88 44.09 94.31 36.16 94.31 34.17 88.72 38.68 80.6 38.68 80.42 43.91 64.18 43.73"/><polyline class="cls-1" points="221.88 17.75 255.08 17.93 258.69 22.26 262.66 18.11 277.27 18.29 266.08 30.74 276.91 43.19 262.48 43.19 258.69 38.86 254.9 43.01 221.7 42.65 213.94 36.16 213.94 24.25"/><polygon class="cls-3" points="222.6 19.92 216.29 25.15 216.11 35.07 222.42 40.49 239.74 40.67 235.95 35.25 223.68 35.25 223.68 32.37 233.43 32.37 233.43 28.04 223.68 27.86 223.68 25.15 236.13 25.15 239.74 20.1 222.6 19.92"/><polygon class="cls-4" points="245.34 20.1 254 20.1 258.69 25.69 263.56 20.28 272.22 20.46 263.2 30.56 272.22 41.03 263.38 41.03 258.69 35.44 253.81 40.85 244.79 40.85 254.36 30.56 245.34 20.1"/><polygon class="cls-2" points="251.47 30.38 242.27 40.49 237.22 33.09 235.59 33.09 235.59 27.5 237.22 27.5 242.45 20.46 251.47 30.38"/><polygon class="cls-5" points="242.45 36.16 238.66 30.38 242.63 24.79 247.86 30.56 242.45 36.16"/><polygon class="cls-1" points="161.98 41.75 204.92 42.11 212.5 36.16 212.68 24.25 204.92 17.57 176.23 17.21 176.41 10.72 162.52 12.7 162.52 17.03 154.58 23.53 154.4 35.44 161.98 41.75"/><polygon class="cls-6" points="164.68 14.69 164.68 17.03 174.06 16.13 174.06 13.24 164.68 14.69"/><polygon class="cls-7" points="163.24 19.38 156.74 24.61 156.74 34.53 163.06 39.95 180.38 40.13 176.59 34.71 164.14 34.53 164.14 31.83 173.88 31.83 173.88 27.32 164.14 27.14 164.14 24.61 176.59 24.61 180.2 19.56 163.24 19.38"/><polygon class="cls-8" points="185.43 19.56 185.25 40.13 203.84 40.31 210.33 35.07 210.33 25.15 204.02 19.74 185.43 19.56"/><rect class="cls-1" x="191.93" y="24.97" width="11.91" height="10.1"/><rect class="cls-2" x="193.91" y="27.14" width="7.76" height="5.59"/><polygon class="cls-1" points="138.7 41.75 138.7 35.44 144.84 41.75 159.45 41.75 146.82 28.76 159.45 17.21 144.29 16.85 138.88 22.08 138.7 16.85 128.06 16.67 127.69 41.75 138.7 41.75"/><polygon class="cls-9" points="130.22 19.02 129.86 39.59 136.54 39.59 136.54 31.83 138.52 31.83 145.92 39.77 154.58 39.77 143.75 28.76 154.04 19.2 145.38 19.02 138.34 26.05 136.72 26.05 136.72 19.02 130.22 19.02"/><polygon class="cls-1" points="97.02 34.89 104.78 41.39 118.49 41.57 126.43 35.25 126.61 23.17 118.85 16.67 104.96 16.49 97.02 22.98 97.02 34.89"/><polygon class="cls-10" points="105.68 18.66 99.37 23.89 99.19 33.81 105.5 39.22 117.95 39.22 124.09 34.17 124.27 24.25 117.95 18.84 105.68 18.66"/><rect class="cls-1" x="105.86" y="24.07" width="11.91" height="10.1"/><rect class="cls-2" x="108.03" y="26.23" width="7.58" height="5.59"/><polygon class="cls-1" points="66.89 41.03 77.72 41.03 77.72 35.8 87.82 35.98 95.58 29.66 95.58 22.8 88 16.31 67.07 16.13 66.89 41.03"/><polygon class="cls-11" points="93.41 23.89 87.1 18.47 69.24 18.29 69.06 38.86 75.55 38.86 75.73 33.63 86.92 33.81 93.41 28.76 93.41 23.89"/><rect class="cls-1" x="75.73" y="23.35" width="11.19" height="5.59"/><rect class="cls-2" x="77.9" y="25.51" width="6.86" height="1.08"/><polygon class="cls-2" points="182.86 19.42 177.59 26.81 176.18 26.81 176 32.08 177.41 32.08 182.51 39.64 182.86 19.42"/><circle class="cls-1" cx="26.59" cy="26.59" r="25.84"/><path d="M374.41,210.13a25.09,25.09,0,1,1-25.09,25.09,25.12,25.12,0,0,1,25.09-25.09m0-1.5A26.59,26.59,0,1,0,401,235.22a26.59,26.59,0,0,0-26.59-26.59Z" transform="translate(-347.81 -208.63)"/><circle class="cls-12" cx="26.59" cy="26.59" r="21.32"/><path d="M374.41,215.41a19.81,19.81,0,1,1-19.81,19.81,19.83,19.83,0,0,1,19.81-19.81m0-1.51a21.32,21.32,0,1,0,21.31,21.32,21.32,21.32,0,0,0-21.31-21.32Z" transform="translate(-347.81 -208.63)"/><circle class="cls-13" cx="33.09" cy="15.23" r="4.67"/><path class="cls-14" d="M376.18,252c-2.44-.21-5.3-.53-6-4.18s.57-5.89,4.72-7.1a7.87,7.87,0,0,0,5.52-5.36c1.64-4.41,4-5.83,7.49-4.91,3.17.84,4.41,3.79,3.5,8.34C389.88,246.39,383.64,252,376.18,252Z" transform="translate(-347.81 -208.63)"/><path class="cls-1" d="M369.52,234.68a7,7,0,0,1-1.52,3.79,5.89,5.89,0,0,1-6.07,2.38c-3.36-.6-5.38-2.47-5.44-6.3a16.43,16.43,0,0,1,5.72-13.21,7.33,7.33,0,0,1,9.29-.17c2.59,2.18,2.3,5.16-.65,9.63A8,8,0,0,0,369.52,234.68Z" transform="translate(-347.81 -208.63)"/></g></svg>