<?xml version="1.0" encoding="UTF-8"?>
<svg xmlns="http://www.w3.org/2000/svg" viewBox="0 0 866.59 504.62">
  <defs>
    <style>
      .cls-1, .cls-2 {
        fill: #0f0f0f;
      }

      .cls-3 {
        fill: #fdc78b;
      }

      .cls-4 {
        fill: #f2dcba;
      }

      .cls-5 {
        fill: #3e3e3e;
      }

      .cls-6 {
        fill: #fefadd;
      }

      .cls-7 {
        fill: #44655f;
      }

      .cls-8 {
        fill: #eae2cb;
      }

      .cls-9 {
        fill: #da9b6f;
      }

      .cls-10 {
        fill: #edeff1;
      }

      .cls-11 {
        fill: #ee7566;
      }

      .cls-12 {
        fill: #646359;
      }

      .cls-13 {
        fill: #fdf8fd;
      }

      .cls-14 {
        fill: #3f303c;
      }

      .cls-2 {
        opacity: .63;
      }

      .cls-15 {
        fill: #282825;
      }
    </style>
  </defs>
  <g id="Camada_8" data-name="Camada 8">
    <path class="cls-2" d="M679.98,361.28s-3.07,2.09-6.02,1.74c0,0-7.09,14.24-119.05,.04,0,0-12.68,38.11-63.57,80.25,0,0,16.19,40.99-24.91,56.2s-100.61-6.88-109.29-22.81c0,0-44.46-3.47-99.74-37.33,0,0-14.03,9.73-38.86-9.58l59.36-109.01,290.24-103.98,24.43-39.71,28.2,.25s4.63,24.51-14.72,43.41c0,0,0,10.6-16.93,32.72"/>
    <polyline class="cls-1" points="815.74 161.56 807.07 171.93 811.4 176.84 791.52 194.56 798.81 213.46 768.02 210.01 772.17 219.38 748.49 216.27 735.01 222.87 729.67 213.46 711.13 208.78 714.48 204.16 695.86 203.16 683.17 199.56 778.68 171.53"/>
    <path class="cls-2" d="M68.35,288.51s2.96,2.24,.62,3.09-3.37,.34-4.32,1.37-5.1,0-5.1,0l-2.71,.92-2.65-1.26s-5.16,1.88-13.46,1.26l-.88,1.15h-3.83l-1.21,1.73s-2.9-1.9-4.03-1.21-3.55,1.21-3.55,1.21c0,0-3.46-1.6-4.63-5.12"/>
  </g>
  <g id="Final">
    <g>
      <path class="cls-4" d="M225.74,265.43c17.03,17,41.79,30.68,71.6,39.57,88.46,26.36,200.84,5.08,244.52-86.57-36.33-32.17-95.79-84.33-145.15-92.21-.01,.02-.03,.05-.03,.05-.1,.16-.27,.24-.46,.22-11.76-1.25-22.69,.39-23.98,.59,.03,.36-.03,.86-.41,1.35-.58,.74-1.97,1.47-5.18,1.47-1.35,0-3.01-.13-5.07-.44-.34,.16-.72,.24-1.14,.24-1.21,0-2.68-.6-4.06-1.35-.43,.38-3.36,2.83-8.13,2.86-.6,1.33-1.25,2.07-1.73,2.47-.2,.17-.45,.25-.7,.25-.28,0-.55-.1-.76-.3-.46-.44-1.05-1.07-1.67-1.82-.36,.17-1.91,.82-5.08,.82-1.11,0-2.42-.08-3.94-.29-2.19,3.18-5.14,3.88-5.19,3.89,0,0-.02,0-.03,0-.03,0-.05,0-.07-.02-.9-.69-1.53-1.68-1.98-2.8-.31,.1-1.22,.38-2.1,.38-.5,0-.97-.1-1.33-.35-1.92,4.22-4.85,6.22-6.43,7.02-.14,.07-.29,.11-.44,.11-.13,0-.26-.03-.38-.08-.26-.11-.45-.33-.53-.6-.44-1.47-.7-3.61-.81-5.93-1.53,.43-22.59,6.41-37.19,14.58,0,.09-.01,.16-.01,.16-.01,.16-.1,.31-.25,.39-34.26,18.44-58.37,37.87-75.3,56.53-2.61,21.23,5.48,41.89,23.43,59.81Z"/>
      <path class="cls-7" d="M679.41,353.96s-.02-.05-.03-.06c-.1-.22-.01-.48,.19-.6,.15-.09,.34-.09,.49,0,.91-.92,3.41-3.62,3.82-5.82-.03-.11-.19-.54-.57-.75-.24-.14-.54-.15-.88-.05-1.21,.43-3.19,.91-5.9,.91-2.3,0-5.12-.35-8.45-1.37-.61-.19-1.14-.56-1.55-1.08-1.02-1.3-2.51-4.17-1.64-6.69,.61-1.77,2.25-3.01,4.89-3.68,1.3-.33,2.72,.03,3.79,.96,1.55,1.34,3.1,2.77,4.53,4.12,.53-8.93,4.87-10.08,5.06-10.12h.04s.04,0,.04,0c1.23,.55,2.97,2.43,3.82,3.39,.42-6.79-9.48-31.29-38.71-47.17-30.9-16.79-72.69-39.89-73.11-40.12-.12-.07-.21-.18-.23-.32-.01-.06-.01-.12,0-.18-5.35-2.3-16.41-12.09-31.59-25.53-.45-.39-.9-.79-1.35-1.2-20.71,43.41-57.98,73.92-107.8,88.24-20.37,5.85-42.42,8.77-64.76,8.77-24.34,0-49.02-3.47-72.22-10.38-14.63-4.36-28.18-9.94-40.29-16.6-12.33-6.78-22.89-14.52-31.41-23.03-17.91-17.88-26.03-38.5-23.54-59.68-20.63,22.82-30.53,44.46-35.11,61.69-9.05,33.99,.06,58.6,.15,58.84,.04,.11,.03,.22-.01,.33,68.77,48.63,81.28,72.06,82.6,81.7,.37,2.72-.15,4.26-.49,4.93,45.19,36.77,102.19,48.26,109.87,49.68-9.3-9.23-12.35-17.82-13.25-23.46-.9-5.71,.15-9.61,.36-10.3-3.95-1.56-6.28-5.06-7.33-7.02-.53-.99-.3-2.23,.54-2.95,5.31-4.48,12.82-5.22,13.47-5.27,7.63-7.36,17.14-12.31,28.28-14.72,9.88-2.14,20.85-2.26,32.59-.36,14.14,2.29,28.91,7.52,41.61,14.72,11.68,6.63,20.48,14.32,24.26,21.2,21-13.51,43-44.85,57.57-65.6,5.27-7.5,9.43-13.43,11.92-16.13,.89-.96,2.19-1.39,3.47-1.13,100.82,19.88,121.14,5.82,121.33,5.68,.17-.12,.39-.13,.56,0,.04,.03,.09,.06,.13,.09,.75-.36,2.44-1.38,4.84-3.87Z"/>
      <path class="cls-10" d="M323.14,119.99c-.63-.4-1.29-.6-1.96-.6-1.39,0-2.86,.85-4.38,2.54-.63,.7-1.03,1.6-1.16,2.6-.61,4.58-.56,11.82,.47,15.28,.06,.2,.21,.36,.4,.45,.2,.09,.42,.08,.62-.02,2.43-1.24,8.08-5.29,8.16-16.14,.01-1.71-.81-3.28-2.14-4.11Z"/>
      <path class="cls-10" d="M331.36,119c-1.86,.33-4.24,2.67-4.51,2.94-.12,.68-1.82,10.77,2.32,14.05,.69-.18,7.83-2.37,7.24-13.58-.22-.31-2.33-3.11-5.05-3.4Z"/>
      <path class="cls-10" d="M347.14,117.89c-.52-.36-1.09-.71-1.7-1.06-.36-.2-.75-.3-1.15-.3-.46,0-.91,.14-1.3,.41-1.39,.96-3.74,2.98-3.82,5.77-.11,3.64,4.11,8.91,6.05,10.75,.32,.3,.81,.32,1.15,.04,1.05-.85,2.87-3.33,3.3-10.34,.13-2.09-.84-4.1-2.52-5.27Z"/>
      <path class="cls-10" d="M148.23,358.99c.59-.2,8.77-3.22,6.35-18.43-1.07-.38-14.77-5.09-23.54-1.51,.77,1.51,9.04,17.3,17.19,19.94Z"/>
      <path class="cls-10" d="M136.41,348.36c-3.34-4.75-5.6-9.22-5.64-9.31l-.06-.11,.12-.05c2.65-1.11,5.74-1.46,8.82-1.4,.99-2.38,1.36-5.15,1.47-6.23-21.12-5.48-25.34-3.57-26.17-2.49-.47,.6-.1,1.28-.08,1.31,.05,.08,.07,.17,.06,.26,.58,1.49,11.8,13.05,18.81,20.06,.01,.01,.01,.03,.02,.04,2.35-1.11,2.62-1.96,2.65-2.09Z"/>
      <path class="cls-10" d="M521.81,163.41c-.06-.04-.13-.06-.19-.06-.06,0-.12,.01-.17,.05-4.54,2.47-9.42,5.48-9.95,6.77,3.38,3.44,5.77,6.04,6.81,7.19,.91-2.72,3.53-10.73,3.67-13.64,0-.13-.05-.24-.16-.31Z"/>
      <path class="cls-10" d="M485.91,134.66c-.08-.1-.21-.16-.34-.14-2.83,.31-8.95,3.43-10.78,4.39,2.3,1.53,4.57,3.14,6.81,4.81,2.22-2.89,3.78-7.02,4.37-8.71,.04-.12,.02-.24-.06-.34Z"/>
      <path class="cls-10" d="M171.9,357.47c-.29-.02-.58-.03-.86-.03-3.76,0-7.33,1.87-9.71,5.12-.84,1.14-1,2.66-.42,3.95,1.65,3.69,6.31,12.34,13.83,12.92,.23-.03,3.62-.61,5.51-3.76,1.85-3.1,1.7-7.57-.45-13.3-1.45-2.79-4.4-4.62-7.9-4.89Z"/>
      <path class="cls-7" d="M315.39,124.5c.14-1.05,.56-2,1.22-2.73,2.93-3.25,5.23-2.88,6.65-1.99,1.4,.88,2.26,2.53,2.25,4.32-.03,3.82-.74,6.79-1.76,9.11,.86,.67,2.75,.13,3.25-.03-1.63-4.45-.44-10.98-.38-11.32,0-.02,.02-.04,.03-.06,.11-.11,2.63-2.69,4.68-3.04,.01,0,.02,0,.03,0,2.97,.3,5.16,3.4,5.25,3.53,.01,.02,.02,.04,.02,.06,.25,4.57-.78,7.67-2.14,9.76,5.45,.73,8.12-.24,8.71-.5-2.02-2.46-4.37-6.14-4.29-8.92,.09-2.89,2.49-4.97,3.92-5.96,.81-.56,1.84-.6,2.7-.11,.62,.35,1.2,.71,1.72,1.07,1.76,1.21,2.76,3.31,2.63,5.48-.23,3.71-.86,6.17-1.55,7.8,4.45-.06,7.23-2.24,7.8-2.74-1.05-.58-2.03-1.24-2.8-1.79-1.16-.84-1.85-2.18-1.85-3.61,.02-4.47,1.44-6.85,2.63-8.05,.47-.47,1.1-.73,1.77-.73,.01,0,.02,0,.03,0,.68,0,1.34,.29,1.8,.78,1.18,1.25,2.26,2.92,3.11,4.7,.69-1.04,2.87-.79,3.84-.61,1.59-5.29,.51-14.32-4.64-21.42-3.66-5.05-10.91-11.12-24.59-11.37-27.7,.25-41.89,17.21-48.9,31.4-6.91,13.96-8.43,28.05-8.67,30.71,14.9-8.3,36.36-14.32,37.15-14.54-.14-3.14,0-6.6,.34-9.2Z"/>
      <path class="cls-7" d="M444.52,97.97c10.74-4.62,22.02-6.44,33.52-5.4,19.59,1.77,33.22,11.35,33.35,11.45,.01,0,.02,.02,.03,.03,8.1,11.06,13.27,24.3,13.67,25.32,11,2.24,35.54,17.2,35.79,17.35,.01,0,.03,.02,.04,.03,8.01,11.55,12.8,23.21,14.24,34.65,1.15,9.16,.17,18.19-2.92,26.86-4.98,13.97-13.92,22.48-14.93,23.42,8.16,7.05,14.25,11.9,17.79,13.42,7.28-9.86,7.73-10.79,15.2-26.17l.99-2.05s.06-.09,.1-.13c28.63-28.1,30.19-38.79,27.94-45.54-1.47-4.4-18.03-10.24-31.35-14.94-12.66-4.47-20.48-7.32-21.78-9.59-2.74-4.81-38.1-38.28-52.23-45.34-.09-.05-.16-.12-.21-.21-.06-.12-6.53-12.57-17.72-34.96-2.8-5.61-6.01-8.63-9.79-9.25-8.38-1.36-19.01,9.26-31.32,21.56-2.61,2.61-5.31,5.31-8.1,8-.04,.04-.09,.07-.14,.1-32.5,13.96-48.06,36.71-49.82,39.41,3.33,.54,6.75,1.27,10.25,2.21,11.43-14.3,24.02-24.47,37.42-30.24Z"/>
      <path class="cls-10" d="M357.57,115c-.42-.44-1.01-.7-1.63-.71-.62-.01-1.2,.23-1.63,.66-1.16,1.17-2.54,3.49-2.56,7.88,0,1.34,.65,2.62,1.75,3.41,2.14,1.54,6.03,3.98,8.02,2.99,.49-.24,.8-.77,.95-1.57,.51-2.86-1.56-9.15-4.89-12.67Z"/>
      <path class="cls-4" d="M560.73,146.91c-.85-.52-24.96-15.17-35.75-17.32-.04,0-.07-.04-.09-.07-.05-.14-5.29-13.89-13.65-25.31-.53-.37-14-9.66-33.23-11.39-17.99-1.63-44.83,3.22-70.65,35.46,19.54,5.28,41.75,16.83,67.51,35.08,25.9,18.35,50.63,40.26,68.69,56.25,4.98,4.41,9.51,8.43,13.55,11.92,.88-.81,9.9-9.32,14.9-23.36,4.83-13.56,6.79-35.19-11.28-61.26Zm-94.27-42.94c.08-.25,.34-.39,.6-.31,9.95,3.16,27.84,14.7,34.18,22.05,.17,.2,.15,.5-.05,.67-.09,.08-.2,.12-.31,.12-.13,0-.27-.06-.36-.17-6.26-7.26-23.92-18.65-33.75-21.76-.25-.08-.39-.35-.31-.6Zm52.44,74.04c.17,.2,.16,.5-.04,.67-.09,.08-.2,.12-.32,.12-.13,0-.26-.05-.36-.16-.22-.24-21.83-24.62-45.38-39.91-.22-.14-.28-.44-.14-.66,.14-.22,.44-.28,.66-.14,.41,.27,.83,.55,1.24,.82,1.68-.89,8-4.15,10.98-4.47,.22-.02,.42,.06,.56,.23,.13,.16,.16,.37,.1,.57-.59,1.7-2.16,5.86-4.4,8.77,11.95,8.91,22.71,19.2,29.53,26.14,.92-1.72,7.22-5.28,10.01-6.8,.19-.11,.42-.1,.61,.02,.18,.11,.29,.31,.27,.52-.15,3.03-2.84,11.22-3.72,13.83,.24,.27,.39,.43,.4,.45Zm39.82,5.52c-.08,.05-.16,.07-.24,.07-.16,0-.32-.08-.41-.23-.12-.19-11.7-19.51-26.47-31.13-.21-.16-.24-.46-.08-.67,.16-.21,.46-.24,.67-.08,14.91,11.73,26.58,31.19,26.7,31.39,.14,.23,.06,.52-.17,.65Z"/>
      <path class="cls-10" d="M364.66,119.16c-.96-.17-3.2-.44-3.68,.64,1.33,2.85,2.06,5.91,1.71,7.91-.13,.73-.41,1.24-.81,1.56,6.64,.96,8.98,0,9.75-.98,.34-.43,.39-.87,.37-1.18-.18-.01-.34-.11-.41-.28-2-4.59-6.64-7.26-6.69-7.28-.14-.08-.23-.23-.24-.39Z"/>
      <path class="cls-14" d="M164.57,382.64c-.44,.29-.18,1.2-.05,1.53l-.12,.05c10.6,9.42,22.38,19.25,32.63,27.8,4.36,3.63,8.54,7.12,12.32,10.32-36.9-37.96-43.62-40.46-44.79-39.71Z"/>
      <path class="cls-10" d="M669.83,334.99c-2.56,.65-4.15,1.83-4.73,3.53-.83,2.43,.69,5.3,1.61,6.47,.38,.48,.87,.83,1.43,1,7.21,2.22,12,1.24,14.21,.46,.34-.12,.59-.4,.68-.75,.08-.35-.02-.71-.28-.97-1.9-1.92-5.64-5.62-9.35-8.82-1.02-.88-2.35-1.22-3.58-.91Z"/>
      <path class="cls-10" d="M359.01,434.92c1.14,.47,2.42,.38,3.52-.25,3.88-2.24,5.69-5.35,5.37-9.22-.41-5.08-4.45-9.79-5.76-10.29-2.11-.8-9.09-.83-9.24-.83-.08,0-7.91,.61-13.37,5.22-.76,.64-.96,1.76-.48,2.65,1.04,1.95,3.37,5.44,7.31,6.95,0,0,0,0,0,0h0c6.4,3.08,10.41,4.84,12.65,5.76Z"/>
      <path class="cls-10" d="M674.8,357.98c1.55,.98,4.29,2.06,5.01,2.34,.24-.13,.42-.33,.54-.61,.59-1.39-.32-4.21-.85-5.51-2.27,2.35-3.89,3.37-4.71,3.79Z"/>
      <path class="cls-4" d="M479.38,435.08c-3.75-6.84-12.53-14.52-24.19-21.13-12.67-7.19-27.42-12.4-41.53-14.69-17.56-2.84-42.27-2.56-60.48,14.84,1.37,.01,7.09,.11,9.03,.84,1.34,.51,5.49,5.32,5.91,10.49,.32,3.97-1.52,7.15-5.49,9.45-.67,.39-1.41,.58-2.14,.58-.54,0-1.07-.1-1.58-.32-2.23-.92-6.21-2.66-12.54-5.71-.21,.71-1.23,4.55-.34,10.18,.9,5.65,3.97,14.29,13.42,23.56,.27,.05,.43,.08,.46,.08,.08,.01,.16,.05,.23,.1,24.63,20.37,56.23,28.54,93.91,24.26,10.62-.88,18.35-4.86,22.99-11.84,10.14-15.24,2.29-39.96,2.21-40.21-.06-.17,0-.36,.13-.49Zm-61.77-4.33c0-.06,.71-5.67,4.89-8.75,2.52-1.86,5.77-2.44,9.67-1.71,4.22,.78,7.21,2.53,8.88,5.2,2.34,3.74,1.2,8.02,1.19,8.06h0c-1.24,3.35-4.67,5.65-8.96,6.02-.39,.03-.8,.05-1.21,.05-4.7,0-10.62-2.28-14.43-8.79l-.02-.03v-.04Zm-36.85-4.12c-1.93-4.19-.25-8.26-.23-8.3l.02-.03c6.03-6.65,11.18-6.34,14.45-4.89,5.29,2.34,8.52,8.88,8.1,13.29v.04c-.05,.08-3.62,7.51-10.35,7.51-.69,0-1.41-.08-2.16-.25-5-1.58-8.3-4.06-9.82-7.37Zm69.28,53.86c-1.14,4.16-9.59,5.9-19.24,5.9-7.17,0-15.01-.96-21.03-2.62-7.45-2.05-13.99-4.97-18.43-8.23-4.78-3.51-6.81-7.14-5.89-10.49,.9-3.25,5.83-5.53,13.54-6.25,7.25-.68,15.9,.11,23.15,2.11,15.21,4.19,29.8,12.66,27.9,19.59Z"/>
      <path class="cls-10" d="M691.41,353.16c-3.48-1.28-6.64-4.66-7.34-5.45-.53,2.25-2.93,4.84-3.83,5.74,3.05,3.83,11.13,4.58,12.46,4.68,.8-.86-.45-3.48-1.22-4.67-.06-.09-.08-.2-.07-.3Z"/>
      <path class="cls-10" d="M686.98,333.68c.01-.07,.02-.17,.03-.25-.76-.87-2.6-2.89-3.84-3.48-.43,.13-4.41,1.61-4.85,10.09,1.89,1.79,3.54,3.43,4.61,4.51,.31,.32,.44,.76,.34,1.19-.06,.25-.19,.46-.36,.63,.19,0,.36,.06,.52,.15,.47,.26,.65,.77,.69,.89,.17,.2,3.59,4.14,7.38,5.54,.03-.04,.05-.07,.09-.1,.19-.15,.46-.14,.64,.03,1.27,1.27,4.01,1.19,4.96,1.12,1.2-6.24-9.98-19.79-10.1-19.93-.09-.11-.13-.25-.1-.39Z"/>
      <path class="cls-10" d="M402.86,426.65c.4-4.33-2.76-10.74-7.96-13.03-3.19-1.41-8.24-1.71-14.16,4.82-.12,.3-1.59,4.14,.23,8.09,1.5,3.24,4.75,5.68,9.67,7.23,7.76,1.76,11.99-6.67,12.22-7.12Z"/>
      <path class="cls-10" d="M433.25,439.33c4.19-.36,7.54-2.61,8.75-5.85,.04-.16,1.09-4.27-1.16-7.87-1.63-2.6-4.56-4.32-8.72-5.09-3.83-.71-7.02-.15-9.48,1.67-3.91,2.89-4.72,8.05-4.78,8.55,4.09,6.96,10.63,9,15.39,8.59Z"/>
      <path class="cls-4" d="M249.42,408.48c-1.35-9.61-13.87-32.97-82.5-81.5-.12,.1-.27,.14-.42,.1-18.13-4.77-24.78,3.92-24.85,4.01-.07,.1-.19,.15-.31,.17-.11,1.06-.47,3.83-1.45,6.23,7.48,.21,14.73,2.83,14.83,2.86l.07,.02v.07c1.35,8.34-.49,12.99-2.27,15.43-1.94,2.66-4.17,3.32-4.26,3.34h-.03s-.03,0-.03,0c-4.18-1.33-8.38-6.08-11.61-10.64-.17,.37-.76,1.14-2.71,2.07,1.89,6.72,14.85,19.62,30.36,33.42-.13-.39-.34-1.28,.2-1.63,1.85-1.22,11.56,5.12,46.78,41.49,1.11,.95,2.2,1.87,3.22,2.75,6.8,5.85,13.06,7.98,18.62,6.31,10.6-3.18,15.27-19.21,15.32-19.37,.04-.15,.16-.28,.32-.32,.05-.01,.1-.02,.14-.02,.04,0,.08,.01,.13,.02,.32-.65,.83-2.16,.46-4.83Zm-68.97-32.69c-2.01,3.35-5.66,3.87-5.69,3.88h-.01s-.01,0-.01,0c-7.65-.57-12.37-9.32-14.04-13.06-.61-1.37-.44-2.98,.44-4.19,2.6-3.56,6.63-5.5,10.78-5.18,3.58,.27,6.61,2.15,8.1,5.03,2.18,5.82,2.33,10.36,.43,13.53Z"/>
      <path class="cls-14" d="M422.08,461.13c-5.52-1.52-11.85-2.33-17.75-2.33-1.82,0-3.6,.08-5.31,.24-7.6,.71-12.46,2.92-13.33,6.08-.9,3.25,1.11,6.79,5.8,10.24,4.41,3.24,10.93,6.15,18.35,8.2,15.54,4.28,38.15,3.52,39.97-3.12,1.87-6.79-12.63-15.14-27.73-19.3Z"/>
      <path d="M687.95,333.62c.67-5.59-7.33-31.23-39.17-48.52-29.11-15.82-67.89-37.24-72.62-39.86,7.04-9.55,7.74-10.97,14.97-25.89l.96-1.97c23.02-22.6,31.44-36.5,28.12-46.46-1.61-4.85-17.03-10.28-31.93-15.54-9.88-3.48-20.09-7.09-21.27-9.17-3.22-5.63-38.97-38.79-52.5-45.66-.73-1.41-7.08-13.68-17.64-34.8-2.95-5.9-6.38-9.09-10.49-9.76-8.86-1.44-19.65,9.34-32.14,21.82-2.59,2.58-5.27,5.26-8.02,7.93-32.74,14.1-48.44,37.09-50.19,39.77-11.24-1.15-21.67,.28-23.72,.59-1.89-4.02-5.5-6.5-6.62-7.19,1.54-5.56,.38-14.75-4.86-21.97-3.79-5.23-11.26-11.51-25.36-11.76-28.21,.26-42.63,17.52-49.77,31.95-7.15,14.49-8.59,29.1-8.77,31.24-33.74,18.19-60.56,38.86-79.73,61.44-9.8,11.55-17.62,23.61-23.39,36.04-3.28,7.08-5.9,14.28-7.84,21.57-8.16,30.73-1.6,53.88-.1,58.51-16.62-4.08-23.53,2.84-24.79,4.33-3.87-1-7.34-1.8-10.41-2.39-9.42-1.83-14.96-1.73-16.52,.32-.84,1.12-.17,2.3-.14,2.36h.02c.42,1,3.04,4.45,16.64,18.15,.72,.73,1.49,1.5,2.28,2.29,3.4,11.66,36.68,39.43,63.45,61.76,6.41,5.35,12.47,10.41,17.4,14.65,7.06,6.09,13.63,8.28,19.51,6.5,9.95-2.99,14.72-16.13,15.75-19.34,47.37,38.27,107.36,49.05,110.55,49.61,20.55,16.96,45.89,25.5,75.5,25.49,6.15,0,12.49-.36,19.02-1.11,10.91-.9,18.88-5.03,23.69-12.27,9.72-14.61,3.36-37.56,2.42-40.68,21.11-13.67,43.09-44.98,57.66-65.73,5.25-7.48,9.39-13.38,11.85-16.03,.66-.72,1.62-1.03,2.58-.84,96.21,18.97,119,7.46,121.81,5.69,1.85,1.2,5.33,2.52,5.49,2.58,.1,.04,.22,.05,.32,0,.58-.21,1-.61,1.25-1.2,.53-1.25,.16-3.16-.27-4.6,4.18,3.19,11.52,3.6,11.87,3.61,.11,0,.22-.02,.31-.09,.59-.42,.79-1.06,.77-1.77-.02-.91-.39-1.92-.77-2.73,1.96,.71,4.35,.42,4.48,.4,.19-.02,.35-.16,.4-.34,1.71-6.27-8.69-19.25-10.07-20.94ZM446.67,86.59c.06-.02,.1-.05,.14-.1,2.79-2.69,5.48-5.39,8.1-7.99,12.31-12.3,22.94-22.93,31.32-21.56,3.79,.62,6.99,3.64,9.8,9.25,11.19,22.39,17.65,34.83,17.72,34.96,.05,.09,.12,.16,.21,.21,14.13,7.06,49.48,40.54,52.23,45.34,1.3,2.27,9.12,5.12,21.77,9.59,13.31,4.7,29.88,10.55,31.35,14.95,2.25,6.74,.69,17.43-27.95,45.53-.04,.04-.07,.09-.1,.13l-.99,2.04c-7.46,15.38-7.92,16.31-15.19,26.17-3.54-1.52-9.62-6.37-17.79-13.42,1.02-.93,9.96-9.45,14.94-23.42,3.09-8.67,4.07-17.7,2.92-26.86-1.44-11.45-6.23-23.1-14.24-34.65,0-.02-.02-.03-.04-.04-.25-.15-24.79-15.12-35.79-17.35-.39-1.02-5.56-14.27-13.67-25.32,0,0-.02-.02-.03-.03-.13-.1-13.76-9.67-33.35-11.45-11.5-1.04-22.78,.77-33.52,5.4-13.4,5.76-25.99,15.94-37.42,30.23-3.5-.94-6.91-1.67-10.25-2.2,1.76-2.71,17.32-25.46,49.82-39.42Zm110.45,144.94c-4.03-3.49-8.57-7.51-13.55-11.92-18.06-15.99-42.8-37.9-68.69-56.25-25.76-18.25-47.97-29.81-67.52-35.08,25.83-32.25,52.67-37.09,70.66-35.46,19.23,1.74,32.7,11.02,33.23,11.39,8.36,11.43,13.6,25.17,13.65,25.31,.02,.04,.05,.07,.09,.08,10.79,2.16,34.9,16.8,35.76,17.32,18.07,26.08,16.11,47.71,11.28,61.26-5.01,14.04-14.01,22.55-14.9,23.36Zm-185.53-104.7c.08,.16,.24,.27,.41,.28,.03,.31-.02,.75-.36,1.18-.78,.98-3.11,1.94-9.76,.97,.41-.31,.69-.83,.82-1.55,.35-1.99-.39-5.06-1.72-7.91,.49-1.08,2.72-.81,3.68-.65,0,.16,.1,.31,.24,.39,.05,.03,4.69,2.69,6.69,7.29Zm-10.07,2.4c-1.99,.99-5.88-1.45-8.02-2.99-1.1-.79-1.75-2.07-1.75-3.41,.02-4.4,1.4-6.71,2.56-7.88,.43-.44,1.02-.68,1.64-.67,.62,0,1.21,.27,1.63,.71,3.32,3.52,5.39,9.81,4.88,12.68-.14,.79-.46,1.33-.94,1.56Zm-74.95-11.7c7.01-14.18,21.19-31.15,48.9-31.4,13.69,.25,20.93,6.31,24.6,11.37,5.15,7.1,6.22,16.12,4.64,21.41-.97-.17-3.16-.43-3.84,.62-.85-1.77-1.93-3.45-3.11-4.7-.46-.49-1.12-.77-1.8-.78h-.03c-.68,0-1.31,.26-1.77,.73-1.19,1.2-2.61,3.58-2.63,8.05,0,1.42,.68,2.77,1.84,3.61,.76,.55,1.75,1.21,2.8,1.79-.57,.5-3.36,2.67-7.8,2.74,.7-1.63,1.32-4.09,1.55-7.8,.13-2.17-.87-4.26-2.62-5.47-.52-.36-1.11-.72-1.73-1.07-.86-.49-1.89-.45-2.7,.11-1.43,.98-3.83,3.06-3.92,5.95-.09,2.78,2.27,6.46,4.28,8.92-.59,.27-3.26,1.23-8.71,.51,1.36-2.09,2.38-5.19,2.14-9.76,0-.03,0-.05-.02-.07-.1-.13-2.28-3.22-5.26-3.53h-.03c-2.05,.34-4.58,2.93-4.68,3.03-.02,.02-.03,.04-.04,.06-.06,.35-1.25,6.88,.38,11.33-.5,.16-2.38,.71-3.25,.03,1.02-2.33,1.74-5.29,1.76-9.12,.02-1.78-.85-3.43-2.24-4.31-1.42-.89-3.73-1.26-6.66,1.98-.66,.73-1.08,1.68-1.22,2.74-.34,2.6-.48,6.06-.34,9.2-.79,.22-22.25,6.24-37.15,14.54,.24-2.66,1.76-16.75,8.67-30.71Zm59.79,15.97c-.34,.28-.83,.26-1.14-.05-1.95-1.84-6.16-7.11-6.05-10.75,.08-2.78,2.42-4.81,3.82-5.77,.39-.27,.85-.4,1.31-.4,.39,0,.78,.1,1.14,.3,.61,.35,1.19,.71,1.71,1.06,1.68,1.16,2.65,3.19,2.52,5.27-.44,7-2.25,9.48-3.3,10.34Zm-17.2,2.49c-4.14-3.28-2.43-13.37-2.32-14.05,.28-.28,2.65-2.61,4.51-2.94,2.72,.29,4.83,3.09,5.05,3.4,.59,11.21-6.54,13.39-7.24,13.58Zm-12.05,4.25c-.19,.1-.42,.1-.62,.02-.19-.09-.33-.25-.4-.45-1.03-3.46-1.07-10.7-.47-15.28,.13-1,.53-1.91,1.16-2.6,1.53-1.69,2.99-2.54,4.39-2.54,.67,0,1.33,.19,1.96,.59,1.34,.83,2.15,2.4,2.14,4.11-.08,10.86-5.72,14.91-8.15,16.15Zm-39.51,8.84c.14-.08,.24-.22,.25-.38,0,0,0-.08,.02-.17,14.6-8.17,35.66-14.15,37.19-14.58,.1,2.33,.37,4.46,.81,5.93,.08,.27,.27,.49,.53,.6,.11,.06,.25,.08,.38,.08,.14,0,.3-.03,.44-.1,1.57-.8,4.5-2.79,6.42-7.02,.36,.26,.84,.35,1.34,.35,.88,0,1.79-.28,2.1-.38,.45,1.13,1.09,2.12,1.98,2.8,.02,.02,.05,.03,.07,.03,0,0,.02,0,.03,0,.05,0,3-.71,5.19-3.89,1.53,.21,2.83,.29,3.94,.29,3.18,0,4.72-.64,5.08-.82,.63,.75,1.21,1.38,1.67,1.82,.22,.2,.5,.31,.76,.31,.25,0,.5-.09,.71-.25,.49-.4,1.13-1.13,1.74-2.47,4.77-.03,7.7-2.47,8.13-2.86,1.39,.75,2.86,1.35,4.06,1.35,.42,0,.8-.08,1.13-.24,2.06,.31,3.73,.44,5.07,.44,3.2,0,4.6-.72,5.18-1.47,.39-.49,.44-.99,.41-1.34,1.29-.21,12.23-1.85,23.99-.59,.18,.02,.36-.07,.46-.23,0,0,.02-.03,.03-.05,49.37,7.88,108.83,60.04,145.15,92.2-43.67,91.66-156.06,112.94-244.52,86.57-29.81-8.88-54.57-22.57-71.61-39.57-17.95-17.92-26.03-38.59-23.42-59.81,16.94-18.66,41.05-38.09,75.3-56.53Zm-143.88,201.32c-.94-.95-1.97-1.98-3.04-3.06-6.81-6.9-15.27-15.71-15.77-17.01,0-.09-.02-.18-.07-.26,0-.03-.38-.71,.09-1.32,.67-.87,3.55-2.29,15.75,.09,2.91,.56,6.35,1.34,10.42,2.4-.11,1.08-.48,3.85-1.47,6.23-3.07-.07-6.17,.29-8.82,1.4l-.11,.05,.06,.11c.05,.09,2.31,4.56,5.65,9.31-.03,.12-.31,.98-2.65,2.09,0,0-.02-.03-.03-.04Zm20.85-9.85c2.42,15.21-5.76,18.24-6.35,18.44-8.15-2.64-16.41-18.44-17.19-19.94,8.77-3.59,22.47,1.13,23.54,1.51Zm42.45,71.48c-10.25-8.56-22.03-18.38-32.64-27.8l.12-.06c-.13-.32-.39-1.24,.05-1.53,1.16-.75,7.89,1.75,44.79,39.71-3.79-3.2-7.97-6.69-12.32-10.32Zm51.92,1.27s-.08-.02-.12-.02-.1,0-.14,.02c-.15,.05-.27,.17-.31,.32-.05,.16-4.71,16.2-15.32,19.37-5.56,1.67-11.82-.46-18.62-6.3-1.02-.89-2.11-1.81-3.22-2.76-35.22-36.38-44.92-42.71-46.78-41.49-.54,.35-.32,1.25-.2,1.63-15.52-13.79-28.48-26.7-30.37-33.42,1.96-.93,2.54-1.69,2.71-2.06,3.23,4.55,7.43,9.3,11.62,10.63h.03s.04,0,.04,0c.1-.03,2.33-.69,4.26-3.35,1.78-2.44,3.62-7.1,2.28-15.43v-.07s-.08-.03-.08-.03c-.1-.04-7.34-2.65-14.82-2.86,.98-2.4,1.34-5.18,1.45-6.23,.11-.03,.23-.08,.31-.17,.07-.1,6.71-8.77,24.85-4.01,.15,.04,.3,0,.42-.1,68.63,48.53,81.15,71.89,82.49,81.49,.38,2.66-.13,4.18-.46,4.83Zm228.09,62.47c-4.64,6.98-12.38,10.97-23,11.85-37.67,4.27-69.28-3.89-93.91-24.26-.07-.06-.14-.09-.23-.1-.03,0-.19-.03-.46-.08-9.45-9.27-12.52-17.91-13.42-23.56-.9-5.64,.12-9.48,.33-10.19,6.33,3.05,10.31,4.79,12.54,5.71,.51,.21,1.05,.31,1.58,.31,.73,0,1.47-.19,2.15-.58,3.97-2.3,5.81-5.47,5.48-9.44-.42-5.18-4.57-9.99-5.91-10.49-1.94-.73-7.66-.83-9.03-.84,18.21-17.41,42.92-17.68,60.48-14.84,14.11,2.28,28.86,7.5,41.53,14.69,11.66,6.61,20.44,14.29,24.19,21.13-.12,.13-.18,.31-.12,.49,.08,.25,7.94,24.97-2.2,40.21Zm-130.7-46.62c-3.94-1.51-6.27-5-7.31-6.94-.49-.9-.28-2.01,.48-2.65,5.47-4.61,13.3-5.22,13.38-5.23,.14,0,7.12,.03,9.23,.83,1.31,.5,5.35,5.21,5.76,10.29,.32,3.87-1.49,6.97-5.37,9.21-1.1,.64-2.37,.72-3.51,.26-2.24-.93-6.26-2.68-12.66-5.77h0s0,0,0,0Zm328.09-71.41c-.17-.12-.4-.11-.57,0-.19,.14-20.51,14.2-121.33-5.67-1.28-.26-2.58,.16-3.47,1.13-2.5,2.7-6.66,8.63-11.92,16.13-14.56,20.75-36.57,52.1-57.57,65.6-3.79-6.87-12.58-14.57-24.26-21.19-12.69-7.2-27.47-12.43-41.6-14.72-11.74-1.9-22.71-1.78-32.59,.36-11.14,2.4-20.65,7.36-28.28,14.72-.64,.06-8.15,.79-13.47,5.27-.84,.71-1.07,1.95-.53,2.94,1.04,1.96,3.38,5.47,7.32,7.02-.21,.69-1.26,4.59-.35,10.3,.89,5.65,3.94,14.24,13.24,23.46-7.68-1.41-64.68-12.91-109.87-49.68,.33-.67,.86-2.21,.49-4.93-1.33-9.64-13.83-33.07-82.61-81.7,.04-.1,.06-.22,0-.32-.09-.25-9.19-24.86-.15-58.85,1.84-6.91,4.54-14.55,8.45-22.69,5.82-12.11,14.33-25.35,26.67-39-2.49,21.18,5.63,41.79,23.54,59.68,8.52,8.51,19.08,16.25,31.41,23.03,12.11,6.65,25.67,12.24,40.3,16.6,23.2,6.91,47.87,10.38,72.21,10.38,22.34,0,44.4-2.92,64.76-8.77,49.82-14.33,87.1-44.84,107.8-88.24,.45,.4,.91,.8,1.34,1.19,15.18,13.45,26.24,23.23,31.59,25.53,0,.06,0,.12,0,.18,.03,.13,.11,.25,.24,.31,.42,.23,42.2,23.33,73.11,40.13,29.22,15.88,39.13,40.37,38.71,47.16-.85-.96-2.59-2.83-3.82-3.4h-.04s-.04,0-.04,0c-.11,.02-1.8,.47-3.21,2.9-.87,1.51-1.63,3.8-1.84,7.22-1.43-1.35-2.98-2.78-4.53-4.12-1.08-.93-2.49-1.29-3.8-.95-2.63,.67-4.28,1.9-4.88,3.68-.87,2.52,.62,5.39,1.64,6.69,.41,.52,.94,.9,1.55,1.08,3.34,1.03,6.16,1.37,8.46,1.37,2.71,0,4.68-.49,5.9-.91,.33-.1,.63-.09,.88,.05,.38,.21,.53,.65,.57,.75-.41,2.19-2.91,4.9-3.82,5.82-.15-.09-.33-.09-.49,0-.21,.12-.3,.38-.2,.6,0,.02,.02,.05,.03,.07-2.4,2.5-4.09,3.51-4.85,3.87-.04-.03-.09-.06-.12-.09Zm8.32-13.03c.25,.26,.35,.62,.28,.97-.09,.35-.33,.63-.68,.75-2.21,.78-7,1.75-14.21-.46-.56-.18-1.06-.52-1.43-1-.93-1.17-2.44-4.03-1.61-6.47,.58-1.7,2.17-2.88,4.73-3.53,1.22-.31,2.56,.03,3.58,.91,3.7,3.2,7.44,6.91,9.35,8.82Zm-2.4,14.99c-.12,.29-.3,.49-.54,.61-.72-.28-3.45-1.35-5.01-2.34,.81-.41,2.43-1.43,4.7-3.79,.53,1.3,1.44,4.13,.85,5.51Zm12.35-1.57c-1.34-.1-9.42-.85-12.47-4.68,.9-.9,3.3-3.49,3.82-5.73,.71,.78,3.87,4.16,7.34,5.45,0,.1,0,.21,.08,.31,.76,1.18,2.01,3.81,1.22,4.66Zm4.47-4.14c-.9,.07-3.4,.13-4.74-.93-.08-.06-.15-.12-.22-.19-.17-.17-.45-.19-.64-.03-.04,.03-.06,.07-.09,.1-3.79-1.39-7.21-5.33-7.38-5.53-.04-.12-.22-.63-.69-.89-.16-.1-.33-.14-.52-.15,.17-.16,.31-.38,.36-.62,.1-.44-.03-.88-.34-1.19-1.06-1.08-2.72-2.72-4.61-4.51,.19-3.45,.95-5.74,1.83-7.26,1.27-2.2,2.77-2.76,3.02-2.83,1.25,.59,3.08,2.61,3.84,3.48,0,.08-.02,.17-.03,.25-.03,.13,0,.28,.11,.39,.11,.13,11.29,13.68,10.09,19.92Z"/>
      <path d="M532.19,151.49c-.21-.16-.51-.13-.67,.08-.16,.21-.13,.51,.08,.67,14.77,11.62,26.35,30.93,26.47,31.13,.09,.15,.25,.23,.41,.23,.08,0,.17-.02,.24-.07,.23-.13,.3-.43,.17-.65-.12-.2-11.79-19.66-26.7-31.39Z"/>
      <path d="M500.52,126.34c.09,.11,.23,.17,.36,.17,.11,0,.22-.04,.31-.12,.2-.17,.22-.47,.05-.67-6.34-7.35-24.23-18.89-34.18-22.05-.26-.08-.52,.06-.6,.31-.08,.25,.06,.52,.31,.6,9.83,3.12,27.49,14.51,33.75,21.76Z"/>
      <path d="M521.94,163.21c-.19-.12-.41-.13-.61-.02-2.79,1.52-9.09,5.08-10.01,6.8-6.82-6.94-17.58-17.22-29.53-26.14,2.24-2.92,3.81-7.07,4.4-8.77,.07-.2,.03-.41-.1-.57-.13-.17-.34-.25-.56-.23-2.98,.32-9.29,3.58-10.98,4.47-.41-.27-.83-.55-1.24-.82-.22-.14-.52-.08-.66,.14-.14,.22-.08,.52,.14,.66,23.54,15.29,45.16,39.67,45.38,39.91,.09,.11,.23,.16,.36,.16,.11,0,.22-.04,.32-.12,.2-.17,.22-.48,.04-.67-.02-.02-.16-.18-.4-.45,.88-2.61,3.57-10.81,3.72-13.83,.01-.21-.09-.41-.27-.52Zm-47.15-24.31c1.82-.96,7.94-4.08,10.78-4.39,.13-.02,.26,.04,.34,.14,.08,.1,.1,.22,.06,.34-.59,1.69-2.15,5.82-4.37,8.71-2.23-1.66-4.51-3.27-6.81-4.81Zm43.52,38.46c-1.04-1.15-3.43-3.74-6.81-7.19,.53-1.29,5.41-4.3,9.95-6.77,.05-.03,.11-.05,.17-.05,.07,0,.13,.02,.19,.06,.11,.07,.17,.18,.16,.31-.14,2.91-2.76,10.92-3.67,13.64Z"/>
      <path d="M422.15,460.9c-7.25-2-15.9-2.78-23.15-2.11-7.71,.72-12.64,3-13.54,6.25-.92,3.35,1.11,6.98,5.89,10.49,4.43,3.26,10.98,6.18,18.43,8.23,6.02,1.66,13.86,2.62,21.03,2.62,9.65,0,18.09-1.75,19.24-5.9,1.91-6.93-12.68-15.4-27.9-19.59Zm27.67,19.53c-1.83,6.64-24.43,7.39-39.97,3.12-7.42-2.04-13.94-4.95-18.35-8.2-4.69-3.45-6.7-6.99-5.8-10.24,.87-3.15,5.73-5.37,13.33-6.08,1.7-.16,3.49-.24,5.31-.24,5.9,0,12.24,.82,17.75,2.33,15.1,4.16,29.6,12.51,27.73,19.3Z"/>
      <path d="M171.92,357.23c-4.15-.32-8.18,1.62-10.78,5.18-.89,1.21-1.06,2.82-.44,4.19,1.67,3.73,6.39,12.48,14.04,13.06h.01s.01,0,.01,0c.04,0,3.69-.53,5.69-3.88,1.89-3.16,1.75-7.71-.43-13.53-1.49-2.87-4.52-4.75-8.1-5.03Zm8.33,18.43c-1.89,3.16-5.28,3.73-5.51,3.76-7.52-.57-12.17-9.22-13.83-12.92-.58-1.29-.42-2.81,.42-3.95,2.37-3.25,5.95-5.12,9.71-5.12,.29,0,.58,.01,.86,.03,3.5,.27,6.46,2.1,7.9,4.89,2.15,5.73,2.3,10.21,.45,13.3Z"/>
      <path d="M432.06,439.62c.41,0,.82-.02,1.21-.05,4.28-.37,7.72-2.68,8.96-6.01h0c.01-.05,1.15-4.33-1.19-8.07-1.67-2.66-4.65-4.41-8.88-5.2-3.89-.73-7.15-.15-9.67,1.71-4.18,3.08-4.88,8.7-4.89,8.75v.04s.02,.03,.02,.03c3.81,6.51,9.74,8.79,14.43,8.79Zm-9.42-17.43c2.47-1.82,5.66-2.38,9.48-1.67,4.15,.77,7.09,2.48,8.72,5.09,2.25,3.59,1.2,7.7,1.16,7.87-1.21,3.25-4.56,5.49-8.75,5.85-4.77,.42-11.3-1.63-15.39-8.59,.07-.5,.87-5.66,4.78-8.55Z"/>
      <path d="M392.75,434.24c6.73,0,10.3-7.43,10.34-7.51v-.04c.43-4.41-2.79-10.96-8.09-13.29-3.27-1.44-8.42-1.76-14.45,4.89l-.02,.03s-1.7,4.11,.23,8.3c1.52,3.31,4.83,5.79,9.82,7.37,.75,.17,1.47,.25,2.16,.25Zm-11.77-7.71c-1.82-3.95-.35-7.8-.23-8.09,5.92-6.53,10.97-6.23,14.16-4.82,5.19,2.29,8.36,8.7,7.96,13.03-.22,.45-4.46,8.88-12.22,7.12-4.92-1.56-8.17-3.99-9.67-7.23Z"/>
    </g>
  </g>
  <g id="final">
    <g>
      <path class="cls-3" d="M11.84,250.03c-.06,.01-.1-.03-.11-.07-.01-.04,0-.1,.06-.12l.17-.06c-.03,.07-.07,.13-.1,.21,0,.01-.01,.03-.02,.04Z"/>
      <path class="cls-15" d="M65.01,228.09c.4,.69,1.02,1.13,1.53,1.13,.14,0,.27-.03,.38-.1,.38-.22,.51-.77,.37-1.39,.6,.47,1.06,1.1,1.29,1.79,.31,.92,.43,1.7,.36,2.3-.08,.69-.42,1.14-1,1.34-1.08,.36-1.81-1.13-2.34-2.23-.08-.17-.16-.33-.23-.47-.55-1.05-.71-1.96-.46-2.58,.03,.07,.06,.14,.1,.21Z"/>
      <path class="cls-13" d="M45.9,229.97h0c-.16,.84-.9,1.45-1.75,1.45-.53,0-1.03-.23-1.37-.64h0s0,0,0,0c-.27-.32-.42-.73-.42-1.15,0-.99,.8-1.79,1.79-1.79s1.79,.8,1.79,1.79c0,.12-.01,.23-.03,.34h0Z"/>
      <path class="cls-3" d="M25.76,289.78c3.41,1.03,7.29,1.68,11.54,1.94,.19,.08,.29,.18,.31,.3,.04,.23-.2,.51-.33,.64l-3.49-.18-1.36,.81c-4.15-.66-5.69,.19-5.96,.36-2.21-.32-3.51-.99-3.87-1.99-.42-1.15,.55-2.41,.78-2.69,.78,.3,1.58,.57,2.37,.81Z"/>
      <path class="cls-12" d="M64.47,230.67c.11,.22,.23,.47,.36,.73,.83,1.71,1.97,4.05,3.67,3.48,.92-.31,1.44-1.01,1.57-2.09,.11-.94-.08-2.15-.56-3.59-.6-1.77-2-2.96-3.11-3.48-.42-.2-.81-.3-1.11-.3-.12,0-.22,.02-.31,.05-.63,.24-1.06,.65-1.27,1.22-.36,.95-.09,2.37,.75,3.99Zm.41-2.86c-.15-.34-.23-.69-.23-1.01,.01-.41,.16-.73,.43-.88,.55-.31,1.4,.15,1.91,1.03,.13,.23,.23,.46,.29,.69,.64,.48,1.12,1.15,1.37,1.86,.32,.93,.44,1.71,.36,2.33-.09,.71-.44,1.18-1.04,1.39-.12,.04-.24,.06-.35,.06-.93,0-1.58-1.32-2.06-2.32-.08-.17-.16-.33-.23-.47-.57-1.1-.73-2.05-.45-2.68Z"/>
      <path class="cls-13" d="M65.11,225.97c.11-.06,.23-.09,.36-.09,.49,0,1.08,.42,1.47,1.1,.49,.85,.47,1.79-.04,2.09-.52,.3-1.34-.15-1.83-1.01-.24-.42-.37-.86-.36-1.26,0-.39,.15-.69,.4-.83Z"/>
      <path class="cls-13" d="M60.4,237.04c-.37,1.22-1.43,2.74-1.62,3-.93-.5-2.15-2.05-2.45-2.44,.78-.35,1.52-.79,2.17-1.23,.59,.35,1.23,.56,1.9,.67Z"/>
      <path class="cls-6" d="M25.83,289.55s0,0,0,0c.02-.3,.19-1.24,1.3-2.99,1.26-2,4.04-5.51,10.1-10.82,11.38-9.98,18.63-15.36,19-15.63,.32,.15,5.18,2.56,9.32,6.33,3.88,3.53,7.89,9.01,5.13,15.16-.05,.05-.1,.1-.15,.14-1.38,1.29-3,2.52-4.82,3.64-.01,0-.02,0-.02,.01h0c-3.31,2.04-7.17,3.67-11.17,4.72-3.02,.79-6.13,1.27-9.26,1.41-2.73,.12-5.39,.11-7.9-.04-4.24-.25-8.11-.9-11.51-1.93Z"/>
      <path class="cls-12" d="M66.56,220.71c9.25-3.24,10.44-7.34,10.95-11.97,.79-8.89-5.1-16.2-9.66-18.06-4.47-1.57-8.17-1.72-10.71-.44-1.67,.85-2.82,2.28-3.42,4.26-3.32,11.87,3.54,20.56,3.94,21.05,3.36,1.13,6.35,2.86,8.9,5.15Zm-.12-4.23c-.74,0-2.63-1.66-4.52-4.44-2.06-3.03-6.51-10.97-3.22-19.34,.37-.95,1.09-1.7,1.98-2.05,3.2-1.29,9.49-.48,13.73,7.01,1.59,3.09,1.34,10.39-1.36,14.82-1.59,2.62-3.88,4-6.62,4Z"/>
      <path class="cls-6" d="M62.11,211.91c-2.04-3-6.44-10.86-3.19-19.13,.35-.89,1.02-1.59,1.85-1.92,.75-.3,1.68-.49,2.72-.49,3.26,0,7.56,1.81,10.72,7.39,1.37,2.67,1.54,9.85-1.35,14.59-1.57,2.58-3.73,3.89-6.42,3.89-.58,0-2.4-1.51-4.33-4.33Z"/>
      <path class="cls-12" d="M72.7,240.93c-.27-1.14,1.74-2.6,1.76-2.61h0l1.31-.95h.06s0-.04,0-.04l9.86-7.12v-.02s-1.46-4.02-1.46-4.02c0-.05,.02-.48,.23-.59,.11-.06,.26-.01,.45,.13,.48,.6,2.16,3.48,2.18,3.51l.02,.03,.03-.02,3.9-2.62-2.98-5.77c.02-.09,.15-.82,.45-.89,.12-.03,.26,.05,.41,.24,.66,.84,3.19,5.47,3.21,5.51v.03s.04-.01,.04-.01l3.96-2.1c.11-.06,.21-.01,.26,.06,.05,.07,.07,.18-.01,.27l-3.35,3.69v.02s2.55,5.82,2.55,5.82c0,.15-.01,.55-.19,.62-.12,.05-.31-.07-.55-.34-.72-1.19-3.01-5.65-3.03-5.69l-.02-.03-3.62,3.25v.02s1.28,4.49,1.16,4.96c0,.01,0,.01,0,.01,0,0,0,0,0,0-.19,0-1.35-2.14-2.36-4.17l-.02-.03-.03,.02-10.21,7.28h.07s15.53,3.07,15.53,3.07c.1,.02,.14,.1,.14,.18,0,.07-.05,.15-.16,.16-2.95,.2-10.54,.54-17.42-.6-1.3-.22-2.04-.63-2.17-1.22Z"/>
      <path class="cls-12" d="M31.79,223.46c.26-.46,2.57-4.74,2.96-10.23,.38-5.33-1.02-12.95-9.85-18.92-3.96-1.91-10.31-1.12-15.1,1.89-3.92,2.46-6.07,5.84-6.07,9.53,0,4.97,2.72,9.91,7.45,13.54,5.86,4.5,13.56,6.06,20.62,4.19Zm-.77-10.68c-.09,4.24-1.7,7.05-1.71,7.08l-.03,.06h-.07c-.25,0-.49,0-.73,0-16.03,0-19.83-7.85-22.11-12.57l-.08-.16c-1.06-3.46,.73-8.19,4.08-10.77,2.14-1.65,6.7-3.81,13.19,.24l.02,.02c6.3,6.23,7.52,12.2,7.43,16.11Z"/>
      <path class="cls-11" d="M72.23,249.01c-1.38-.54-2.17-3.96-1.7-7.31,.51-6.81,1.71-8.59,2.62-8.88,.49-.16,.92,.11,1.14,.3,.49,1.35,.93,2.76,1.31,4.24v.02s.06,0,.06,0l-1.24,.89c-.09,.06-2.06,1.5-1.78,2.67,.14,.62,.89,1.05,2.22,1.27,.35,.06,.71,.11,1.06,.16-.11,.88-.45,2.85-1.52,5.5-.78,1-1.52,1.4-2.18,1.14Z"/>
      <path class="cls-3" d="M65.8,285.59s.53-.24,1.51,.94c.41,.49,.68,1.17,.81,2.02,.05,.32-.05,.64-.27,.88-.23,.25-.55,.37-.88,.35l-2.31-.18c-.43-.03-.84,.15-1.1,.48l-.09,.11c-.27,.34-.71,.51-1.13,.44l-2.8-.46c-.22-.04-.44-.02-.65,.05l-1.36,.45c-.18,.06-.37,.07-.55,.02l-1.96-.46c3.87-1.06,7.59-2.65,10.79-4.63,0,0,0,0,0,0Z"/>
      <path class="cls-15" d="M42.82,230.92s.04,.04,.06,.06c.03,.02,.05,.05,.08,.07,.02,.02,.05,.04,.07,.06,.03,.02,.06,.04,.09,.06,.02,.02,.05,.03,.07,.05,.03,.02,.06,.03,.1,.05,.03,.01,.05,.03,.08,.04,.03,.02,.07,.03,.1,.04,.03,.01,.05,.02,.08,.03,.04,.01,.07,.02,.11,.03,.03,0,.05,.02,.08,.02,.04,0,.09,.02,.13,.02,.02,0,.04,0,.07,.01,.07,0,.13,.01,.2,.01,.05,0,.11,0,.16,0,.02,0,.04,0,.06,0,.03,0,.07,0,.1-.01,.02,0,.04,0,.06-.01,.03,0,.06-.01,.09-.02,.02,0,.04-.01,.06-.02,.03,0,.06-.02,.09-.03,.02,0,.04-.02,.06-.03,.03-.01,.05-.02,.08-.03,.02,0,.04-.02,.06-.03,.03-.01,.05-.03,.08-.04,.02-.01,.04-.02,.06-.04,.02-.01,.05-.03,.07-.04,.02-.01,.04-.03,.06-.04,.02-.02,.05-.03,.07-.05,.02-.01,.04-.03,.05-.05,.02-.02,.04-.04,.06-.06,.02-.02,.03-.03,.05-.05,.02-.02,.04-.04,.06-.06,.02-.02,.03-.04,.05-.05,.02-.02,.04-.04,.05-.07,.01-.02,.03-.04,.04-.06,.02-.02,.03-.05,.05-.07,.01-.02,.02-.04,.04-.06,.01-.02,.03-.05,.04-.07,.01-.02,.02-.04,.03-.07,.01-.03,.02-.05,.03-.08,0-.02,.02-.05,.03-.07,0-.03,.02-.05,.03-.08,0-.02,.01-.05,.02-.07,0-.02,.01-.03,.01-.05,.32,.4,.55,.91,.66,1.46,.29,1.46-.33,2.82-1.39,3.03-1.06,.21-2.16-.81-2.45-2.26-.1-.48-.09-.97,0-1.42,.02,.02,.04,.04,.06,.06Z"/>
      <path class="cls-11" d="M35.78,236.65c4.12,0,7.47,3.45,7.47,7.69,0,4.24-3.35,7.69-7.47,7.69-3.1,0-5.91-2.01-6.99-5l5.28-.95s.98-.64,.93-1.63c-.05-.96-1.02-1.92-2.87-2.85h0s-2.91-.91-2.91-.91c1.31-2.5,3.82-4.05,6.57-4.05Z"/>
      <path class="cls-3" d="M28.73,247.05l-16.63,3s-.02,.03-.02,.05c-2.53,5.01-6.23,14.95-2.56,25.22,2.22,6.22,6.89,10.73,13.88,13.41,.78,.3,1.58,.57,2.38,.81,.02-.32,.2-1.25,1.3-2.99,1.26-2.01,4.04-5.52,10.12-10.85,11.63-10.19,18.94-15.6,19.01-15.65h.01s.02,0,.02,0c.05,.02,5.08,2.46,9.35,6.34,2.51,2.28,4.26,4.61,5.22,6.92,1.15,2.77,1.14,5.51-.02,8.17,1.22-1.18,2.21-2.37,2.93-3.55,2.03-3.41,3.02-7.4,2.95-11.88l-4,2.05-.03-.05,4.03-2.07s0-.02,0-.03h.05s1.9-.98,1.9-.98h.01s.01,0,.01,0c1.89,.54,5.15,0,5.18,0,.31-.12,.5-.32,.57-.59,.24-.89-.86-2.29-.87-2.3l-.02-.03,.04-.02c.6-.26,0-1.87-.01-1.88-1.64-2.39-3.31-3.72-4.97-3.93-1.45-.19-2.35,.58-2.36,.58h0s-.98,0-.98,0h-.01s0,0,0,0h-3.57v-.06h3.55c-1.01-3.43-2.19-5.72-2.2-5.74l-.03-.05,.03-.05c.55-1.02,.99-1.98,1.35-2.86-.59,.72-1.17,1.09-1.7,1.09-.14,0-.29-.03-.42-.08-1.4-.55-2.21-4-1.73-7.37,.52-6.84,1.73-8.63,2.66-8.93,.47-.15,.88,.06,1.12,.25-1.83-5-4.45-9.05-7.8-12.08-2.54-2.3-5.53-4.03-8.9-5.16-10.53-3.52-22.03,.07-22.96,.37-.85,4.37-2.61,7.44-2.63,7.48l-.02,.04h-.05c-2,.55-4.05,.81-6.09,.81-1,0-2.01-.06-3-.19-4.02,2.91-6.23,8.86-7.19,12.17l13.54,4.23c1.31-2.52,3.85-4.09,6.63-4.09,4.15,0,7.52,3.48,7.52,7.75s-3.38,7.75-7.52,7.75c-3.13,0-5.96-2.03-7.05-5.05Zm29.62-14.58c0,.21-.34,.38-.76,.38s-.76-.17-.76-.38c0-.21,.34-.38,.76-.38s.76,.17,.76,.38Zm6.42-1.04c-.13-.26-.25-.51-.36-.73-.85-1.63-1.12-3.07-.75-4.04,.22-.58,.66-1,1.3-1.25,.32-.12,.85-.03,1.46,.25,1.12,.52,2.53,1.72,3.14,3.51,.49,1.45,.68,2.67,.57,3.62-.13,1.11-.67,1.83-1.61,2.14-.19,.06-.36,.09-.54,.09-1.45,0-2.45-2.06-3.2-3.6Zm-13.37,6.51c2.39,.94,5.06-.47,7.03-1.79l.07-.05s.07,.05,.07,.05c1.43,.9,3.27,.88,4.91,.76,.43-.04,1.27-.16,1.69-.24l-.83,.2s-.84,.15-.84,.15c-.97,.12-1.99,.19-2.97,.05-.4,1.36-1.66,3.08-1.67,3.09l-.03,.04-.04-.02c-.99-.5-2.28-2.16-2.55-2.52-1.56,.69-3.29,1.02-4.82,.28Zm-6.21-1.03c-.71,0-1.44-.24-2.12-.72-.96-.67-1.69-1.73-2.07-2.98-.38-1.25-.36-2.54,.06-3.64,.42-1.1,1.19-1.86,2.17-2.16,2.01-.61,4.29,.99,5.08,3.58,.78,2.58-.22,5.18-2.23,5.79-.29,.09-.59,.13-.89,.13Zm-15.17,26.7c.66-1.19,1.77-2.19,3.11-2.82,1.24-.58,2.6-.8,3.73-.6,.35,.06,.64,.28,.79,.6,.15,.31,.15,.67-.02,.98-.95,1.8-2.9,5.17-5.21,7.54-.37,.38-.87,.59-1.37,.59-.23,0-.46-.04-.67-.13-.67-.26-1.12-.71-1.35-1.33-.42-1.11-.08-2.74,.99-4.84Z"/>
      <path class="cls-3" d="M28.33,243.31c-.04,.3-.06,.59-.06,.88l-15.94,5.41c.73-1.39,1.26-2.19,1.27-2.2l.02-.03v-.03s.28-3.9,1.37-8.51l13.34,4.48Z"/>
      <path class="cls-3" d="M28.38,243.33l1.21,.41-1.28,.43c0-.28,.02-.56,.06-.84Z"/>
      <path class="cls-12" d="M43.11,236.14c.94,.67,1.99,.87,2.95,.58,1.98-.6,2.96-3.17,2.19-5.72-.66-2.19-2.41-3.66-4.14-3.66-.29,0-.58,.04-.86,.13-.96,.29-1.72,1.05-2.13,2.13-.42,1.08-.44,2.36-.06,3.6,.38,1.24,1.1,2.29,2.05,2.95Zm-.39-5.33c-.27-.33-.42-.75-.42-1.18,0-1.02,.83-1.85,1.85-1.85s1.85,.83,1.85,1.85c0,.12-.01,.23-.03,.34,.34,.42,.59,.94,.71,1.52,.3,1.49-.35,2.88-1.44,3.1-.1,.02-.19,.03-.29,.03-.99,0-1.96-.98-2.23-2.34-.1-.51-.1-1.02,.01-1.48Z"/>
      <path class="cls-6" d="M29.13,219.68c-16.45,.21-20.27-7.7-22.55-12.44l-.07-.14c-1.03-3.36,.73-7.98,4-10.5,2.09-1.61,6.55-3.71,12.91,.24,6.22,6.17,7.43,12.06,7.35,15.92-.08,3.85-1.43,6.5-1.65,6.92Z"/>
      <path class="cls-3" d="M36.85,260.25c.33,.06,.6,.26,.75,.56,.15,.3,.14,.64-.02,.93-.95,1.8-2.9,5.17-5.2,7.53-.53,.54-1.3,.72-1.98,.45-.65-.26-1.09-.69-1.32-1.3-.41-1.1-.08-2.71,.99-4.79,1.44-2.58,4.64-3.76,6.78-3.38Z"/>
      <path d="M31.02,212.78c.08-3.91-1.14-9.88-7.43-16.11l-.02-.02c-6.5-4.04-11.05-1.88-13.19-.24-3.35,2.58-5.14,7.31-4.08,10.77l.08,.16c2.28,4.72,6.07,12.57,22.11,12.57,.24,0,.48,0,.73,0h.07s.03-.06,.03-.06c.02-.03,1.62-2.83,1.71-7.08Zm-.23-.02c-.08,3.85-1.43,6.5-1.65,6.92-16.45,.21-20.27-7.7-22.55-12.44l-.07-.14c-1.03-3.36,.73-7.98,4-10.5,2.09-1.61,6.55-3.71,12.91,.24,6.22,6.17,7.43,12.06,7.35,15.92Z"/>
      <path d="M43.08,236.18c.67,.48,1.4,.72,2.12,.72,.3,0,.6-.04,.89-.13,2.01-.61,3.01-3.21,2.23-5.79-.79-2.58-3.06-4.19-5.08-3.58-.98,.3-1.75,1.06-2.17,2.16-.42,1.09-.44,2.39-.06,3.64,.38,1.25,1.12,2.31,2.07,2.98Zm.03-.05c-.95-.67-1.68-1.72-2.05-2.95-.38-1.24-.36-2.52,.06-3.6,.41-1.08,1.17-1.83,2.13-2.13,.28-.09,.57-.13,.86-.13,1.73,0,3.47,1.48,4.14,3.66,.77,2.55-.21,5.12-2.19,5.72-.96,.29-2.01,.09-2.95-.58Z"/>
      <path d="M64.77,231.43c.75,1.55,1.75,3.6,3.2,3.6,.17,0,.35-.03,.54-.09,.94-.32,1.48-1.04,1.61-2.14,.11-.95-.08-2.17-.57-3.62-.6-1.79-2.02-2.99-3.14-3.51-.61-.28-1.14-.38-1.46-.25-.65,.25-1.08,.67-1.3,1.25-.37,.97-.1,2.4,.75,4.04,.11,.22,.23,.47,.36,.73Zm.05-.03c-.13-.26-.25-.51-.36-.73-.84-1.62-1.11-3.04-.75-3.99,.21-.56,.64-.97,1.27-1.22,.09-.03,.19-.05,.31-.05,.3,0,.69,.1,1.11,.3,1.11,.52,2.51,1.71,3.11,3.48,.49,1.44,.68,2.65,.56,3.59-.13,1.08-.66,1.79-1.57,2.09-1.69,.57-2.84-1.77-3.67-3.48Z"/>
      <path d="M51.4,237.93c1.54,.74,3.26,.41,4.82-.28,.27,.36,1.55,2.02,2.55,2.52l.04,.02,.03-.04s1.27-1.74,1.67-3.09c.98,.14,2.01,.07,2.97-.05,0,0,.84-.15,.84-.15l.83-.2c-.42,.08-1.27,.2-1.69,.24-1.64,.13-3.47,.15-4.91-.76,0,0-.07-.05-.07-.05l-.07,.05c-1.97,1.32-4.64,2.73-7.03,1.79Zm4.93-.33c.78-.35,1.52-.79,2.17-1.23,.59,.35,1.23,.56,1.9,.67-.37,1.22-1.43,2.74-1.62,3-.93-.5-2.15-2.05-2.45-2.44Z"/>
      <path d="M57.6,232.84c-.42,0-.76-.17-.76-.38,0-.21,.34-.38,.76-.38s.76,.17,.76,.38c0,.21-.34,.38-.76,.38Z"/>
      <path d="M66.44,216.48c2.73,0,5.02-1.38,6.62-4,2.7-4.43,2.95-11.73,1.36-14.82-4.24-7.49-10.53-8.3-13.73-7.01-.89,.36-1.61,1.11-1.98,2.05-3.29,8.37,1.16,16.32,3.22,19.34,1.89,2.78,3.79,4.44,4.52,4.44Zm0-.24c-.58,0-2.4-1.51-4.33-4.33-2.04-3-6.44-10.86-3.19-19.13,.35-.89,1.02-1.59,1.85-1.92,.75-.3,1.68-.49,2.72-.49,3.26,0,7.56,1.81,10.72,7.39,1.37,2.67,1.54,9.85-1.35,14.59-1.57,2.58-3.73,3.89-6.42,3.89Z"/>
      <path d="M.06,232.73l6.01,2.68-1.28,6.23h0s.27,1.04,.62,1.05h0c.15,0,.28-.16,.4-.5,.46-1.27,1.93-5.53,2.06-5.92l4.67,1.62c-.06,.37-.66,4.12-.48,4.77,.08,.29,.35,.46,.73,.43,.33-.02,.69-.19,.72-.44,.01-.08,.03-.21,.04-.38,.08-.69,.23-2.12,.62-3.71l.57,.19c-1.05,4.42-1.35,8.16-1.38,8.53-.1,.16-.64,1-1.34,2.35-.01,.02-.02,.05-.04,.07l-.23,.08c-.09,.03-.12,.12-.1,.19,.01,.06,.06,.11,.14,.12-2.55,5.07-6.19,15.01-2.52,25.3,2.22,6.24,6.89,10.78,13.87,13.49-.32,.39-1.21,1.65-.78,2.86,.4,1.1,1.78,1.82,4.11,2.15h.05s.04-.02,.04-.02c.01-.01,1.45-1.05,5.87-.34h.04s1.37-.82,1.37-.82l3.52,.18,.04-.03s.51-.45,.44-.88c-.02-.09-.06-.17-.12-.24,1.25,.07,2.53,.1,3.84,.1,1.21,0,2.43-.03,3.68-.08,3.14-.14,6.26-.62,9.28-1.41l2.38,.56c.1,.02,.19,.03,.29,.03,.13,0,.26-.02,.39-.06l1.36-.45c.17-.06,.36-.07,.54-.04l2.8,.47c.51,.08,1.03-.12,1.36-.52l.09-.11c.22-.27,.55-.42,.9-.39l2.31,.18c.4,.03,.8-.12,1.07-.42,.27-.29,.39-.69,.33-1.08-.14-.89-.43-1.61-.86-2.14-.57-.69-1.01-.94-1.32-1.02,1.7-1.08,3.21-2.23,4.51-3.45,1.36-1.27,2.45-2.57,3.23-3.85,2.06-3.47,3.07-7.54,2.99-12.1h-.05s1.78-.91,1.78-.91c1.9,.54,5.17,0,5.2,0,.33-.13,.54-.34,.61-.63,.23-.86-.69-2.11-.86-2.33,.6-.32,0-1.88-.02-1.95-1.65-2.41-3.34-3.75-5.02-3.96-1.4-.18-2.29,.51-2.39,.59h-.74c-.94-3.19-2.02-5.42-2.21-5.79,2.23-4.18,2.8-7.36,2.94-8.57,3.39,.47,6.88,.61,9.83,.61,2.72,0,4.98-.12,6.3-.21,.14,0,.21-.11,.21-.21,0-.1-.05-.21-.18-.24l-15.47-3.04,10.07-7.18c.38,.77,2.09,4.17,2.41,4.17h0s.04-.01,.06-.06c.12-.47-1.05-4.62-1.15-4.97l3.53-3.17c.22,.42,2.33,4.52,3.02,5.67,.27,.31,.47,.42,.62,.36,.25-.1,.22-.66,.22-.68h0s-2.54-5.82-2.54-5.82l3.33-3.66c.1-.12,.08-.25,.01-.34-.07-.09-.2-.15-.33-.07l-3.94,2.08c-.2-.37-2.57-4.69-3.2-5.5-.16-.21-.32-.3-.47-.26-.36,.09-.49,.92-.5,.95h0s0,.02,0,.02l2.96,5.73-3.83,2.58c-.17-.3-1.71-2.92-2.17-3.49h0c-.21-.16-.38-.21-.52-.14-.26,.13-.26,.63-.26,.64h0s1.45,4.02,1.45,4.02l-9.81,7.08c-1.78-7-4.83-12.5-9.06-16.38,9.28-3.28,10.47-7.43,10.99-12.12,.47-5.27-1.32-9.4-2.9-11.93-1.87-2.99-4.45-5.37-6.9-6.37-4.53-1.6-8.3-1.74-10.9-.43-1.73,.88-2.92,2.36-3.54,4.41-3.08,11.02,2.53,19.33,3.77,20.99-10.15-3.24-21.07-.04-22.61,.45,.15-.83,.27-1.71,.34-2.62,.39-5.4-1.02-13.1-9.97-19.15-4.1-1.99-10.41-1.2-15.35,1.89-3.99,2.5-6.18,5.96-6.18,9.73,0,5.05,2.75,10.05,7.54,13.73,3.37,2.58,7.33,4.2,11.44,4.78-3.96,2.99-6.13,8.86-7.09,12.15l-.52-.16c.09-.33,1-3.54,1.63-4.45,.16-.24,.21-.43,.12-.56-.21-.32-1.09-.16-1.12-.15h-.01s0,.02,0,.02c-.09,.16-2.05,3.8-2.12,4.47l-4.91-1.2,1.87-6.41h0s-.18-.63-.54-.69c-.19-.04-.39,.09-.61,.37-.7,.93-2.41,5.62-2.54,5.99l-6.5-1.07c-.05-.01-.1,.02-.12,.07-.01,.05,0,.1,.06,.12Zm31.73-9.27c-7.05,1.87-14.76,.31-20.61-4.19-4.74-3.64-7.45-8.57-7.45-13.54,0-3.69,2.16-7.07,6.07-9.53,4.8-3.01,11.15-3.8,15.11-1.89,8.83,5.97,10.23,13.59,9.85,18.92-.39,5.49-2.7,9.76-2.96,10.23Zm34.77-2.75c-2.54-2.29-5.53-4.02-8.9-5.15-.4-.5-7.26-9.19-3.94-21.05,.6-1.98,1.75-3.41,3.42-4.26,2.54-1.29,6.24-1.14,10.71,.43,4.55,1.86,10.45,9.17,9.66,18.06-.51,4.63-1.69,8.73-10.95,11.97Zm8.31,21.44c-1.3-.22-2.04-.63-2.17-1.22-.02-.07-.02-.14-.02-.22,0-1.1,1.77-2.38,1.79-2.4l1.31-.95h.06s0-.04,0-.04l9.87-7.12v-.02s-1.46-4.02-1.46-4.02c0-.05,.01-.48,.23-.59,.11-.06,.26-.01,.45,.13,.48,.6,2.16,3.48,2.18,3.51l.02,.03,.03-.02,3.9-2.62-2.98-5.76c.02-.09,.15-.82,.45-.89,.12-.03,.26,.05,.4,.24,.66,.84,3.19,5.47,3.21,5.52v.03s.04-.01,.04-.01l3.96-2.1c.11-.06,.21-.01,.26,.06,.05,.07,.07,.18-.01,.27l-3.35,3.68v.02s2.55,5.82,2.55,5.82c0,.16-.02,.55-.19,.62-.12,.05-.31-.07-.55-.34-.72-1.19-3.01-5.65-3.03-5.69l-.02-.04-3.62,3.25v.02s1.28,4.48,1.16,4.96c0,.01,0,.01,0,.01h0c-.19,0-1.35-2.14-2.36-4.17l-.02-.03-.03,.02-10.21,7.28h.07s15.53,3.07,15.53,3.07c.1,.02,.14,.1,.14,.18,0,.07-.05,.15-.16,.16-2.95,.2-10.54,.54-17.42-.6Zm-.47,5.72c-.78,1-1.53,1.4-2.18,1.14-1.38-.54-2.17-3.96-1.7-7.31,.51-6.81,1.71-8.59,2.62-8.89,.49-.16,.92,.11,1.14,.3,.49,1.35,.93,2.76,1.31,4.24v.02s.06,0,.06,0l-1.24,.9c-.08,.06-2.06,1.49-1.78,2.67,.14,.62,.89,1.05,2.22,1.27,.35,.06,.71,.11,1.06,.16-.11,.88-.45,2.85-1.52,5.49Zm-19.4,42.35c3.87-1.06,7.59-2.65,10.79-4.63h0s.53-.24,1.51,.94c.41,.49,.68,1.17,.81,2.02,.05,.32-.05,.64-.27,.88-.23,.25-.55,.37-.88,.35l-2.31-.18c-.43-.03-.84,.15-1.1,.48l-.09,.11c-.27,.34-.71,.51-1.14,.43l-2.8-.46c-.22-.04-.44-.02-.65,.05l-1.36,.45c-.18,.06-.37,.07-.55,.02l-1.96-.46Zm-17.67,1.27c-4.24-.25-8.11-.9-11.51-1.93h0c.02-.3,.19-1.24,1.3-3,1.26-2,4.04-5.5,10.11-10.82,11.38-9.98,18.63-15.36,18.99-15.63,.32,.15,5.18,2.56,9.32,6.33,3.88,3.53,7.88,9.01,5.13,15.16-.05,.05-.1,.1-.15,.15-1.38,1.29-3,2.52-4.82,3.64,0,0-.02,0-.02,.01-3.31,2.04-7.17,3.67-11.17,4.72-3.02,.79-6.13,1.27-9.26,1.41-2.73,.12-5.39,.11-7.9-.04Zm-13.95-2.51c.78,.3,1.58,.57,2.38,.81,3.41,1.03,7.29,1.68,11.54,1.94,.18,.08,.29,.18,.31,.3,.04,.23-.2,.51-.33,.63l-3.49-.18-1.36,.82c-4.15-.66-5.69,.19-5.96,.36-2.21-.32-3.51-.99-3.87-1.99-.42-1.15,.55-2.41,.78-2.69Zm-11.42-39.18c-.03,.07-.07,.13-.1,.2l-.02,.04c-.06,.01-.1-.03-.11-.07-.01-.04,0-.1,.06-.12l.17-.06Zm.13,.26l16.63-3c1.09,3.02,3.92,5.05,7.05,5.05,4.15,0,7.52-3.48,7.52-7.75s-3.38-7.75-7.52-7.75c-2.78,0-5.32,1.57-6.63,4.08l-13.54-4.23c.96-3.31,3.17-9.26,7.19-12.17,1,.12,2,.19,3,.19,2.04,0,4.09-.26,6.09-.8h.05s.02-.05,.02-.05c.02-.04,1.79-3.11,2.63-7.48,.93-.3,12.43-3.89,22.96-.37,3.37,1.13,6.36,2.86,8.9,5.16,3.36,3.03,5.97,7.08,7.8,12.08-.25-.19-.66-.4-1.12-.25-.93,.3-2.15,2.1-2.66,8.93-.48,3.37,.33,6.82,1.73,7.37,.14,.05,.28,.08,.42,.08,.53,0,1.11-.37,1.7-1.09-.36,.89-.81,1.84-1.35,2.86l-.03,.05,.03,.05s1.18,2.31,2.2,5.74h-3.55s0,.06,0,.06h3.57s0,0,0,0h.01s.98,0,.98,0h0s.91-.78,2.35-.59c1.66,.22,3.33,1.54,4.97,3.93,0,.01,.62,1.62,.01,1.88l-.04,.02,.02,.03s1.11,1.41,.87,2.3c-.07,.27-.27,.47-.57,.59-.03,0-3.29,.55-5.17,0h-.01s-.01,0-.01,0l-1.9,.98h-.05s0,.03,0,.03l-4.03,2.07,.03,.05,4-2.05c.07,4.48-.93,8.47-2.95,11.88-.72,1.18-1.71,2.37-2.93,3.55,1.15-2.66,1.16-5.41,.02-8.17-.96-2.31-2.71-4.64-5.22-6.92-4.26-3.88-9.29-6.32-9.35-6.34h-.01s-.01,0-.01,0c-.07,.05-7.38,5.46-19.01,15.65-6.08,5.33-8.86,8.84-10.12,10.85-1.1,1.74-1.27,2.67-1.3,2.99-.79-.24-1.59-.51-2.38-.82-6.99-2.68-11.66-7.19-13.88-13.41-3.66-10.27,.03-20.21,2.56-25.22,0-.02,.01-.03,.02-.05Zm23.68-13.4c4.12,0,7.47,3.45,7.47,7.69s-3.35,7.69-7.47,7.69c-3.1,0-5.91-2.01-6.99-5l5.28-.95s.98-.64,.93-1.63c-.05-.96-1.02-1.92-2.87-2.85h0s-2.91-.91-2.91-.91c1.31-2.5,3.82-4.04,6.57-4.04Zm-20.8,2.19l13.34,4.48c-.04,.3-.06,.59-.07,.88l-15.94,5.41c.73-1.39,1.26-2.19,1.27-2.2l.02-.03v-.03s.28-3.9,1.37-8.5Zm13.4,4.5l1.21,.41-1.28,.43c0-.28,.03-.56,.06-.84ZM.06,232.62s.03-.04,.05-.03l6.55,1.08v-.02c.03-.05,1.84-5.04,2.55-6,.2-.26,.38-.38,.55-.35,.3,.06,.47,.56,.49,.63l-1.88,6.45h.03s5.01,1.23,5.01,1.23v-.04c0-.52,1.98-4.21,2.11-4.46,.11-.02,.87-.14,1.05,.13,.07,.11,.03,.27-.12,.5-.66,.96-1.63,4.46-1.64,4.5v.03s.02,0,.02,0l.55,.17,.22,.07,16.51,5.16c1.83,.92,2.78,1.86,2.84,2.8,.05,.92-.82,1.53-.9,1.57l-21.91,3.95c.04-.08,.08-.16,.12-.23,.01-.02,.03-.05,.04-.07l17.49-5.93-.08-.03-14.7-4.93-.23-.08-.63-.21v.03c-.4,1.61-.56,3.06-.63,3.75-.02,.17-.03,.3-.04,.38-.03,.19-.33,.37-.67,.39-.35,.02-.6-.12-.67-.39-.18-.66,.48-4.73,.48-4.77v-.02s-.02,0-.02,0l-4.75-1.65v.03s-1.6,4.62-2.08,5.94c-.11,.3-.23,.46-.35,.46h0c-.25-.01-.49-.71-.56-.99l1.28-6.26h-.02S.09,232.67,.09,232.67c-.03-.01-.03-.04-.03-.05Z"/>
      <path d="M30.03,263.6c-1.08,2.1-1.41,3.73-.99,4.84,.23,.62,.69,1.06,1.35,1.33,.22,.09,.45,.13,.67,.13,.5,0,1-.21,1.37-.59,2.31-2.37,4.25-5.74,5.21-7.54,.16-.31,.17-.67,.02-.98-.15-.32-.44-.53-.79-.6-1.13-.2-2.48,.02-3.73,.6-1.34,.63-2.45,1.63-3.11,2.82Zm.05,.03c1.44-2.58,4.64-3.76,6.78-3.38,.33,.06,.6,.26,.75,.56,.15,.3,.14,.64-.02,.93-.95,1.8-2.9,5.17-5.2,7.53-.53,.54-1.3,.72-1.98,.45-.65-.26-1.09-.69-1.32-1.3-.41-1.1-.08-2.71,.99-4.79Z"/>
      <path d="M42.72,230.8c-.11,.47-.11,.98-.01,1.48,.27,1.36,1.23,2.34,2.23,2.34,.1,0,.19,0,.29-.03,1.09-.22,1.73-1.61,1.44-3.1-.12-.58-.36-1.11-.71-1.52,.02-.11,.03-.23,.03-.34,0-1.02-.83-1.85-1.85-1.85s-1.85,.83-1.85,1.85c0,.43,.15,.85,.42,1.18Zm3.21-1.18c0,.12-.01,.23-.03,.34h0s0,0,0,0c-.16,.84-.9,1.44-1.75,1.44-.53,0-1.03-.23-1.37-.64h0s0,0,0,0c-.27-.32-.42-.73-.42-1.15,0-.99,.8-1.79,1.79-1.79s1.79,.8,1.79,1.79Zm-3.17,1.23s.04,.04,.06,.06c.02,.02,.04,.04,.06,.06,.03,.02,.05,.05,.08,.07,.02,.02,.05,.04,.07,.06,.03,.02,.06,.04,.09,.06,.02,.02,.05,.03,.07,.05,.03,.02,.06,.03,.1,.05,.03,.01,.05,.03,.08,.04,.03,.02,.07,.03,.1,.04,.03,.01,.05,.02,.08,.03,.04,.01,.07,.02,.11,.03,.03,0,.05,.02,.08,.02,.04,0,.09,.02,.13,.02,.02,0,.04,0,.07,.01,.07,0,.13,.01,.2,.01,.05,0,.11,0,.16,0,.02,0,.04,0,.06,0,.03,0,.07,0,.1-.01,.02,0,.04,0,.06-.01,.03,0,.06-.01,.09-.02,.02,0,.04-.01,.06-.02,.03,0,.06-.02,.09-.03,.02,0,.04-.02,.06-.03,.03-.01,.05-.02,.08-.03,.02,0,.04-.02,.06-.03,.03-.01,.05-.03,.08-.04,.02-.01,.04-.02,.06-.04,.02-.01,.05-.03,.07-.04,.02-.01,.04-.03,.06-.04,.02-.02,.05-.03,.07-.05,.02-.01,.04-.03,.05-.05,.02-.02,.04-.04,.06-.06,.02-.02,.03-.03,.05-.05,.02-.02,.04-.04,.06-.06,.02-.02,.03-.04,.05-.05,.02-.02,.04-.04,.05-.07,.01-.02,.03-.04,.04-.06,.02-.02,.03-.05,.05-.07,.01-.02,.02-.04,.04-.06,.01-.02,.03-.05,.04-.07,.01-.02,.02-.04,.03-.07,.01-.03,.02-.05,.03-.08,0-.02,.02-.05,.03-.07,0-.03,.02-.05,.03-.08,0-.02,.01-.05,.02-.07,0-.02,.01-.03,.01-.05,.32,.4,.55,.91,.66,1.46,.29,1.46-.33,2.82-1.39,3.03-1.06,.21-2.16-.81-2.45-2.26-.1-.48-.09-.97,0-1.42Z"/>
      <path d="M64.65,226.8c0,.32,.07,.67,.23,1.01-.28,.63-.12,1.58,.45,2.68,.07,.14,.15,.3,.23,.47,.48,.99,1.13,2.32,2.06,2.32,.11,0,.23-.02,.35-.06,.61-.2,.96-.67,1.04-1.39,.07-.61-.05-1.4-.36-2.33-.24-.72-.73-1.38-1.37-1.86-.06-.23-.16-.46-.29-.69-.51-.88-1.37-1.35-1.91-1.03-.27,.15-.42,.47-.43,.88Zm.26,1.09c.03,.07,.06,.14,.1,.21,.4,.69,1.02,1.13,1.53,1.13,.14,0,.27-.03,.38-.1,.38-.22,.51-.77,.37-1.39,.6,.47,1.06,1.1,1.29,1.79,.31,.92,.43,1.7,.36,2.3-.08,.69-.42,1.14-1,1.34-1.08,.36-1.81-1.13-2.34-2.23-.08-.17-.16-.33-.23-.47-.55-1.05-.71-1.96-.46-2.58Zm-.2-1.09c0-.39,.15-.69,.4-.83,.11-.06,.23-.09,.36-.09,.49,0,1.08,.42,1.47,1.1,.49,.85,.47,1.79-.04,2.09-.52,.3-1.34-.15-1.83-1.01-.24-.42-.37-.86-.36-1.26Z"/>
      <path class="cls-12" d="M6.11,235.36h.02s-1.28,6.27-1.28,6.27c.08,.28,.31,.98,.56,.99h0c.12,0,.24-.16,.35-.46,.48-1.32,2.05-5.9,2.07-5.94v-.03s4.76,1.65,4.76,1.65h.02s0,.03,0,.03c0,.04-.66,4.11-.48,4.77,.07,.27,.32,.41,.67,.39,.34-.02,.64-.2,.67-.39,.01-.08,.03-.21,.04-.38,.08-.69,.23-2.14,.63-3.75v-.03s.64,.21,.64,.21l.23,.08,14.7,4.93,.08,.03-17.49,5.93s-.02,.05-.04,.07c-.04,.08-.08,.16-.12,.23l21.91-3.95c.07-.05,.94-.65,.9-1.57-.05-.94-1.01-1.88-2.84-2.8l-16.51-5.16-.22-.07-.55-.17h-.03s0-.04,0-.04c0-.04,.98-3.53,1.64-4.5,.15-.22,.19-.39,.12-.5-.17-.27-.94-.15-1.05-.13-.13,.25-2.11,3.94-2.11,4.46v.04l-5.01-1.22h-.03s1.88-6.46,1.88-6.46c-.02-.07-.19-.58-.49-.63-.17-.03-.35,.09-.55,.35-.72,.96-2.53,5.95-2.54,6v.02s-6.56-1.08-6.56-1.08c-.03,0-.05,.01-.05,.03,0,.02,0,.04,.03,.05l6.03,2.69Z"/>
    </g>
  </g>
  <g id="Final-2" data-name="Final">
    <g>
      <g>
        <polygon class="cls-5" points="749.51 203.16 744.3 210.25 763.3 213.46 760.96 204.88 749.51 203.16"/>
        <polygon class="cls-5" points="790.23 167.1 785.58 168.11 797.09 175.2 783.01 186.11 785.64 193.24 802.48 176.58 799.53 173.74 814.62 161.89 800.14 160.43 790.23 167.1"/>
        <path class="cls-8" d="M712.23,92.62c-.37,.78-.79,1.55-1.41,2.17-.55,.54-1.26,.94-2.05,.89-.98-.06-1.74-.73-2.36-1.44-.26-.3-.5-.61-.72-.94-.21,.02-.43,.02-.65-.03,0,0-.01,0-.02,0,0,.41,0,.83,0,1.24,0,.82-.06,1.69,.12,2.49,.32,1.47,1.65,1.79,2.96,1.41,2.81-.8,4.67-3.86,5.54-6.45,.44-1.33,.7-2.71,.85-4.11-.26,.54-.51,1.08-.77,1.62-.5,1.05-.99,2.1-1.49,3.15Z"/>
        <polygon class="cls-5" points="695.69 199.99 695.95 202.03 709.16 202.03 711.43 208.33 722.14 207.76 715.53 199.99 695.69 199.99"/>
        <path class="cls-8" d="M713.74,79.07c-.55-.55-1.3-.93-2.04-1.16-1.52-.47-3.21-.36-4.62,.41-1.31,.71-2.35,1.88-2.85,3.29-.57,1.61-.68,3.41-.78,5.1-.06,1.02-.08,2.24,.24,3.3,0-.42,0-.85,0-1.27,0-.32,.19-.52,.42-.59,.02-1.32,.36-2.63,1.09-3.8,.9-1.44,2.27-2.57,3.88-3.12,.73-.25,1.67-.47,2.44-.3,1.02,.22,1.02,1.23,.97,2.08-.25,3.67-2.09,7.18-5.01,9.43-.17,.14-.35,.26-.54,.38,.13,.17,.26,.34,.4,.5,.44,.5,1.05,1.21,1.8,1.03,.6-.14,1.05-.75,1.36-1.25,.44-.7,.76-1.47,1.11-2.22,.82-1.74,1.64-3.48,2.46-5.22,.12-.26,.34-.35,.55-.33,.02-1.34-.03-2.69-.1-4-.05-.83-.18-1.65-.79-2.26Z"/>
        <path class="cls-5" d="M820.17,93.82h.38l.06,.05c.06,.05,5.6,4.94,5.72,11.86v.12s0,0,0,0c0,.48-.01,.96-.06,1.43,.76,.58,5.55,4.41,7.12,9.37l.87-7.84-4.08-4.36,.54-1.54h0s.21-.59,.21-.59h0s3.48-9.94,3.48-9.94l-7.94-10.39c.25,2.22,.22,8.18-6.31,11.83Z"/>
        <polygon class="cls-5" points="695.37 181.46 695.23 171.93 689.78 173.89 693.22 184.52 695.37 181.46"/>
        <polygon class="cls-5" points="780.96 163.92 785.46 160.91 786.6 164.81 790.33 159.45 778.68 158.28 780.65 160.49 780.96 163.92"/>
        <path class="cls-5" d="M746.25,9.82l-3.51-7.9c-2.61-1.71-11.29-2.45-15.09,.71-.82,2.57-1.13,4.74-.93,6.49,8.01-7.25,16.96-1.31,19.53,.7Z"/>
        <path class="cls-8" d="M706.25,91.71s0,0,.01,0c.64-.41,1.21-.95,1.72-1.5,1.02-1.08,1.85-2.38,2.39-3.77,.28-.71,.49-1.44,.63-2.19,.07-.39,.13-.77,.15-1.17,.01-.16,.08-.87,.03-.9-.2-.12-.83,.04-1.04,.09-.3,.06-.6,.15-.88,.25-.64,.24-1.24,.62-1.75,1.06-1.05,.92-1.77,2.14-2.03,3.51-.28,1.46,0,3.04,.64,4.38,.04,.08,.08,.15,.12,.22Z"/>
        <path class="cls-8" d="M741.51,111.88c-1.03-1.33-1.95-2.76-2.41-4.32,.04,1.09,.21,2.17,.62,3.19,.2,.51,.46,1.09,.83,1.51,.38,.43,.95,.34,1.48,.31-.18-.23-.35-.48-.51-.69Z"/>
        <path class="cls-8" d="M748.3,105.37c.14-1.31-.05-2.69-.43-3.9-.34-1.06-.86-2.08-1.54-2.96-.22-.28-.79-1.13-1.16-1.15-.36-.02-.95,.81-1.18,1.04-1.57,1.64-3.2,3.49-3.75,5.75-.58,2.39,.53,4.55,1.91,6.42,.2,.27,.41,.54,.62,.81,.16,.2,.34,.52,.55,.67,.23,.18,.44,.04,.72-.06,.27-.1,.55-.21,.81-.33,1.14-.52,2.23-1.2,3.17-2.03,.91-.81,1.58-1.76,1.88-2.95,.3-1.19,.24-2.45,.13-3.66-.23-2.58-.56-5.16-1.83-7.46-.29-.53-.62-1.05-.99-1.54-.14-.19-.34-.54-.56-.65-.23-.11-.5,.03-.72,.12-.91,.35-1.73,.93-2.42,1.61-1.49,1.47-2.45,3.42-3.14,5.37-.05,.15-.1,.31-.16,.46,.89-1.42,2.06-2.68,3.2-3.84,.46-.47,.98-1.01,1.67-1.05,.69-.04,1.16,.44,1.6,.9,.92,.98,1.64,2.13,2.14,3.38,.97,2.39,1.15,5.33,.05,7.71-.5,1.08-1.34,2.05-2.49,2.45-1.25,.43-2.55,0-3.53-.81-2.01-1.67-2.96-5.17-1.23-7.35,.72-.9,1.89-1.51,3.06-1.46,1.27,.06,2.27,.88,2.82,2,.31,.63,.5,1.3,.66,1.98,.04,.17,.08,.34,.11,.52Z"/>
        <path class="cls-8" d="M744.63,107.06c.33-.09,.67-.15,1.01-.21,.42-.08,.97-.18,1.26-.54,.35-.44,0-1.24-.13-1.73-.14-.48-.3-.95-.56-1.39-.5-.84-1.36-1.2-2.3-.9-2.38,.74-2.12,3.82-.99,5.51,.56,.84,1.51,1.64,2.59,1.56,.99-.08,1.68-.87,2.12-1.69,.07-.14,.14-.29,.2-.44-.32,.34-.75,.58-1.2,.73-.67,.23-1.42,.19-2.07,.49-.42,.19-.79,.03-.96-.39-.5-1.21-.62-2.48-.44-3.76,.05-.35,.5-.55,.81-.46,.37,.11,.51,.45,.46,.81-.12,.82-.03,1.64,.21,2.42Z"/>
        <path class="cls-8" d="M859.5,87.86c-1.34,.51-13.69,5.38-28.18,14.66l-.63,1.82,4.03,4.31-1.18,10.62-.28-1.38c-1.15-5.76-7.28-10.29-7.35-10.34l-.1-.07v-.13c.06-.39,.07-.79,.08-1.2-6.11,4.25-11.75,8.79-16.77,13.49l3.39,8.12-20.68,15.95c.72,.88,3.76,4.83,3.96,8.51v.07s-.04,.06-.04,.06l-9.32,13.44-1.23-4.21-4.62,3.08-.37-4.01-14.55-16.41,.66-3.79-3.59-1,.74-.21c.1-.03,10.57-3.2,24.19-17.8,.24-.9,3.44-13.28,1.83-25.2l-.03-.19,21.09-5.15,3.06,2.9h5.6c8.43-4.16,6.85-11.87,6.69-12.55l-12.17-15.93c-.95-.27-11.96-3.2-29.06-.48l-.11,.02-.08-.08c-.65-.65-1.34-1.37-2.06-2.12-5.5-5.75-13.81-14.43-29.92-17.41l-.15-.03-5.76-34.54c-.83-.73-11-9.37-19.85-1.03-.35,8.14-3.34,36.46-3.37,36.75v.12s-.12,.05-.12,.05c-.2,.1-19.99,10.16-31.98,43.77-.02,.26-.22,2.61,.22,6.18,.94-1.63,5.3-8.27,7.9,3.23,2.57,11.36-1.95,12.18-3.09,12.21,4.32,8.38,11.12,15.58,20.21,21.39l.16,.1-13.98,32.39h-7.13l.22,15.73-12.64,17.96h32.57l7.01,8.23s0,0,0,0l12.24,14.37,14.33-19.48,41.66,6.27-8.49-23.01,13.84-10.71-11.9-7.33,5.67-1.23,19.86-13.39-2.26-5.44,19.4-8.8-1.81-7,.19-.07,40.63-14.36c.07-1.99,.7-23.55-6.59-29.77Zm-145.41,6.4c-1.36,2.77-4.45,6.34-7.95,5.51-1.9-.45-2.4-2.3-2.43-4.03-.02-1.07-.02-2.14-.03-3.21-.25-.24-.47-.52-.65-.8-1.07-1.73-1.02-3.92-.85-5.87,.18-2.03,.33-4.18,1.39-5.97,.9-1.51,2.36-2.68,4.03-3.22,1.85-.61,3.93-.4,5.66,.5,.83,.43,1.63,1.05,2.05,1.91,.45,.91,.49,1.92,.52,2.92,.14,4.15,.1,8.47-1.76,12.28Zm-1.6,73.58c-2.56-3.51-.39-10.29,.47-12.61,.15-.41,.74-.42,.89,0,1.26,3.43,1.38,16.38-1.37,12.61Zm10.11,5.13c-2.97-4.06-.45-11.91,.55-14.61,.18-.48,.86-.48,1.03,0,1.46,3.97,1.6,18.97-1.58,14.61Zm16.91-59.91c-.87-1.08-1.36-2.53-1.57-3.88-.45-2.83,.11-5.74,.98-8.44,.11-.34,.23-.68,.35-1.02-.43,.1-.97-.24-.8-.79,.37-1.23,.89-2.43,1.56-3.53,1.33-2.21,3.21-4.09,5.41-5.43,.55-.33,1.12-.63,1.71-.89,.5-.22,1.21-.65,1.77-.45,.65,.23,.87,1.17,1.13,1.74,.36,.79,.72,1.57,1.08,2.36,.68,1.49,1.44,2.97,1.95,4.53,.49,1.47,.67,3.02,.57,4.56-.2,2.99-1.29,5.99-2.8,8.57-.65,1.11-1.5,2.2-2.67,2.78-1.38,.68-3,.58-4.5,.64-1.39,.06-3.19,.49-4.19-.75Zm15.87,16.55c-1.8,2.9-5.77,5.36-8.02,6.59-.95,.52-2.14,.22-2.74-.69-.63-.95-1.53-2.43-2.75-4.67-.66-1.22-1-2.59-1.13-3.97l2.1-1.11c.43-.23,.59-.75,.36-1.18-.23-.43-.75-.59-1.18-.36l-1.35,.71c.06-2.26,.53-4.33,.87-5.53,.19-.68,.62-1.27,1.22-1.64,12.84-7.93,15.15,7.77,12.62,11.84Z"/>
        <path class="cls-8" d="M745.66,92.21c.68-.25,1.35-.26,1.92,.24,.51,.45,.92,1.1,1.29,1.67,1.7,2.65,2.16,5.65,2.46,8.72,.11,1.18,.16,2.4-.03,3.57,.28-.75,.53-1.52,.71-2.3,.61-2.58,.45-5.09-.55-7.55-.53-1.31-1.16-2.58-1.75-3.86-.32-.69-.63-1.37-.95-2.06-.07-.16-.27-.44-.35-.66-.08,.05-.21,.08-.29,.11-2.44,.97-4.57,2.66-6.13,4.76,.2-.23,.4-.45,.62-.67,.87-.86,1.91-1.55,3.07-1.97Z"/>
        <path class="cls-8" d="M748.81,110.68c-.75,.65-1.57,1.2-2.44,1.67,1.07-.16,1.93-.67,2.63-1.53,.27-.33,.5-.69,.72-1.06-.28,.33-.58,.63-.91,.92Z"/>
        <path d="M859.69,87.45l-.1-.08-.12,.04c-.13,.05-12.81,4.84-27.92,14.45l3.35-9.56-20.89-27.34-.07-.02c-.11-.03-11.36-3.34-29.21-.53-.63-.63-1.28-1.31-1.97-2.03-5.52-5.77-13.86-14.48-30.01-17.51l-5.72-34.31v-.02s-.02-.05-.04-.07l-3.92-8.84-.05-.03c-2.72-1.84-11.71-2.66-15.71,.75l-.05,.04-.02,.06c-.92,2.85-1.23,5.26-.92,7.14-.33,7.78-3.15,34.66-3.36,36.67-1.61,.85-20.51,11.47-32.1,43.99v.05s-.28,2.6,.24,6.6c.26,2.04,.68,4.15,1.27,6.26,.83,2.99,1.98,5.94,3.4,8.75,.02,.04,.03,.07,.05,.1,.03,.06,.05,.09,.05,.09l.02,.03c4.33,8.44,11.14,15.68,20.25,21.53l-13.72,31.79h-7.28l.08,6.03-5.99,2.16,3.67,11.34-10.58,15.03h12.93l.32,2.48h13.29l2.27,6.31,11.37-.61,12.51,14.7,9-12.23,19.9,3.37-2.47-9.05,30.21,4.55-5.84-15.82,17.3-17.11-2.91-2.8,15.55-12.21-15.04-1.51,9.79-6.59-2.24-5.38,19.18-8.7,.17-.08-1.8-6.97,40.58-14.35,.14-.05v-.15c.05-.97,1.05-23.83-6.83-30.36Zm-25.27,4.93l-3.48,9.93h0s0,0,0,0l-.21,.59h0s-.54,1.54-.54,1.54l4.08,4.36-.87,7.84c-1.56-4.96-6.36-8.79-7.12-9.37,.05-.47,.06-.95,.06-1.43h0s0-.12,0-.12c-.12-6.92-5.67-11.81-5.72-11.86l-.06-.05h-.38c6.53-3.64,6.55-9.6,6.31-11.83l7.94,10.39Zm-22.43,35.25l-20.77,16.03,.15,.17s3.74,4.44,4,8.35l-4.75,6.85-12.35-1.24-12.11-13.66,.69-3.98-2.56-.71c2.53-.95,11.99-5.1,23.76-17.73l.04-.04v-.05c.05-.13,3.51-12.89,1.9-25.23l20.47-5,3.01,2.85h6.93c.59,.54,5.35,5.09,5.51,11.37-6.27,4.35-12.05,8.99-17.18,13.82l-.11,.1,3.38,8.09Zm-21.66,31.81l-3.72,5.37-1.14-3.9-4.5,3-.31-3.42-1.96-2.22,11.64,1.17ZM727.65,2.64c3.8-3.16,12.47-2.42,15.09-.71l3.51,7.9c-2.57-2.01-11.52-7.95-19.53-.7-.2-1.75,.11-3.92,.93-6.49Zm-37.87,171.26l5.45-1.96,.13,9.53-2.15,3.05-3.44-10.62Zm21.65,34.44l-2.27-6.3h-13.21l-.26-2.04h19.84l6.61,7.77-10.71,.57Zm51.87,5.13l-19.01-3.21,5.22-7.09,11.45,1.72,2.34,8.58Zm51.32-51.58l-15.09,11.86,2.95,2.84-16.84,16.66-2.63-7.13,14.09-10.9-11.51-7.09,4.65-1.01,9.91-6.67,14.48,1.45Zm51.47-44.25l-40.63,14.36-.19,.07,1.81,7-19.4,8.8,2.26,5.44-19.86,13.39-5.67,1.23,11.9,7.33-13.84,10.71,8.49,23.01-41.66-6.27-14.33,19.48-12.24-14.37s0,0,0,0l-7.01-8.23h-32.57l12.64-17.96-.22-15.73h7.13l13.98-32.39-.16-.1c-9.1-5.81-15.9-13.01-20.21-21.39,1.15-.03,5.66-.85,3.09-12.21-2.6-11.5-6.96-4.86-7.9-3.23-.43-3.57-.24-5.91-.22-6.18,11.99-33.61,31.78-43.67,31.98-43.77l.11-.05v-.12c.04-.29,3.04-28.61,3.39-36.75,8.85-8.34,19.02,.29,19.85,1.03l5.76,34.54,.15,.03c16.11,2.98,24.42,11.67,29.92,17.41,.72,.75,1.41,1.47,2.06,2.12l.08,.08,.11-.02c17.1-2.72,28.11,.21,29.06,.48l12.17,15.93c.16,.68,1.74,8.39-6.69,12.55h-5.6l-3.06-2.9-21.09,5.15,.03,.19c1.61,11.91-1.6,24.3-1.83,25.2-13.63,14.61-24.09,17.77-24.19,17.8l-.74,.21,3.59,1-.66,3.79,14.55,16.41,.37,4.01,4.62-3.08,1.23,4.21,9.32-13.44,.04-.06v-.07c-.21-3.68-3.25-7.63-3.96-8.51l20.68-15.95-3.39-8.12c5.01-4.71,10.65-9.24,16.77-13.49,0,.4-.02,.81-.07,1.2v.13s.09,.07,.09,.07c.06,.04,6.19,4.58,7.35,10.34l.28,1.38,1.18-10.62-4.03-4.31,.63-1.82c14.49-9.28,26.85-14.15,28.18-14.66,7.29,6.23,6.66,27.78,6.59,29.77Z"/>
        <path class="cls-5" d="M743.69,113.81c1.5-.06,3.12,.04,4.5-.64,1.18-.58,2.03-1.67,2.67-2.78,1.5-2.58,2.6-5.58,2.8-8.57,.1-1.54-.09-3.09-.57-4.56-.52-1.56-1.27-3.04-1.95-4.53-.36-.79-.72-1.57-1.08-2.36-.26-.57-.48-1.51-1.13-1.74-.56-.2-1.27,.23-1.77,.45-.59,.26-1.16,.55-1.71,.89-2.21,1.33-4.08,3.22-5.41,5.43-.67,1.11-1.19,2.3-1.56,3.53-.17,.55,.37,.89,.8,.79-.13,.34-.24,.68-.35,1.02-.87,2.7-1.43,5.61-.98,8.44,.21,1.35,.71,2.8,1.57,3.88,.99,1.24,2.79,.8,4.19,.75Zm5.31-2.99c-.7,.86-1.56,1.37-2.63,1.53,.87-.47,1.69-1.03,2.44-1.67,.33-.28,.63-.59,.91-.92-.22,.37-.45,.73-.72,1.06Zm-.9-20.73c.09-.03,.22-.06,.29-.11,.08,.22,.28,.5,.35,.66,.32,.69,.63,1.37,.95,2.06,.59,1.28,1.22,2.56,1.75,3.86,1,2.46,1.17,4.97,.55,7.55-.19,.78-.43,1.55-.71,2.3,.2-1.18,.15-2.39,.03-3.57-.29-3.08-.76-6.07-2.46-8.72-.37-.57-.77-1.22-1.29-1.67-.57-.5-1.24-.49-1.92-.24-1.16,.42-2.2,1.11-3.07,1.97-.22,.21-.42,.44-.62,.67,1.57-2.1,3.69-3.79,6.13-4.76Zm-4.14,13.74c-.31-.09-.76,.11-.81,.46-.18,1.29-.07,2.56,.44,3.76,.17,.42,.54,.58,.96,.39,.65-.3,1.4-.26,2.07-.49,.45-.15,.88-.39,1.2-.73-.06,.15-.13,.29-.2,.44-.43,.82-1.13,1.62-2.12,1.69-1.07,.08-2.02-.72-2.59-1.56-1.13-1.68-1.39-4.76,.99-5.51,.94-.29,1.8,.07,2.3,.9,.26,.43,.42,.9,.56,1.39,.14,.49,.48,1.29,.13,1.73-.29,.36-.83,.46-1.26,.54-.35,.06-.68,.13-1.01,.21-.24-.78-.32-1.6-.21-2.42,.05-.35-.09-.7-.46-.81Zm3.56-.96c-.54-1.12-1.55-1.94-2.82-2-1.17-.05-2.35,.55-3.06,1.46-1.73,2.18-.78,5.69,1.23,7.35,.98,.81,2.28,1.24,3.53,.81,1.15-.4,1.99-1.37,2.49-2.45,1.1-2.38,.92-5.32-.05-7.71-.5-1.25-1.22-2.4-2.14-3.38-.44-.46-.91-.94-1.6-.9-.7,.04-1.22,.59-1.67,1.05-1.13,1.16-2.31,2.43-3.2,3.84,.05-.15,.1-.31,.16-.46,.69-1.95,1.65-3.9,3.14-5.37,.69-.68,1.51-1.26,2.42-1.61,.22-.09,.49-.23,.72-.12,.21,.1,.42,.46,.56,.65,.36,.49,.69,1,.99,1.54,1.26,2.3,1.6,4.88,1.83,7.46,.11,1.21,.17,2.47-.13,3.66-.3,1.19-.97,2.14-1.88,2.95-.94,.84-2.03,1.52-3.17,2.03-.27,.12-.54,.23-.81,.33-.28,.1-.49,.24-.72,.06-.2-.16-.39-.47-.55-.67-.21-.27-.42-.53-.62-.81-1.39-1.87-2.5-4.04-1.91-6.42,.55-2.26,2.18-4.11,3.75-5.75,.23-.24,.82-1.07,1.18-1.04,.37,.02,.94,.87,1.16,1.15,.68,.88,1.21,1.9,1.54,2.96,.38,1.21,.57,2.58,.43,3.9-.03-.17-.07-.35-.11-.52-.16-.68-.36-1.35-.66-1.98Zm-6.99,9.39c-.36-.42-.62-1-.83-1.51-.4-1.02-.58-2.1-.62-3.19,.46,1.55,1.38,2.99,2.41,4.32,.16,.21,.33,.46,.51,.69-.52,.03-1.1,.13-1.48-.31Z"/>
        <path class="cls-5" d="M715.34,79.07c-.42-.86-1.22-1.48-2.05-1.91-1.72-.9-3.8-1.1-5.66-.5-1.67,.55-3.13,1.71-4.03,3.22-1.07,1.79-1.22,3.94-1.39,5.97-.17,1.95-.22,4.14,.85,5.87,.18,.29,.4,.56,.65,.8,0,1.07,0,2.14,.03,3.21,.03,1.72,.53,3.57,2.43,4.03,3.5,.84,6.59-2.74,7.95-5.51,1.87-3.81,1.91-8.13,1.76-12.28-.03-.99-.08-2.01-.52-2.92Zm-1.7,12.89c-.87,2.6-2.73,5.66-5.54,6.45-1.31,.37-2.63,.06-2.96-1.41-.18-.8-.11-1.67-.12-2.49,0-.41,0-.83,0-1.24,0,0,.01,0,.02,0,.23,.04,.44,.05,.65,.03,.22,.33,.46,.65,.72,.94,.62,.7,1.38,1.38,2.36,1.44,.79,.05,1.51-.35,2.05-.89,.62-.61,1.04-1.39,1.41-2.17,.5-1.05,.99-2.1,1.49-3.15,.26-.54,.51-1.08,.77-1.62-.14,1.4-.4,2.78-.85,4.11Zm-8.13-4.85c.26-1.37,.98-2.59,2.03-3.51,.51-.45,1.11-.82,1.75-1.06,.29-.11,.58-.19,.88-.25,.21-.04,.84-.2,1.04-.09,.05,.03-.02,.74-.03,.9-.03,.39-.08,.78-.15,1.17-.14,.75-.35,1.48-.63,2.19-.54,1.39-1.37,2.68-2.39,3.77-.52,.55-1.09,1.09-1.72,1.5,0,0,0,0-.01,0-.04-.07-.08-.15-.12-.22-.64-1.34-.91-2.92-.64-4.38Zm9.13-1.78c-.21-.02-.43,.07-.55,.33-.82,1.74-1.64,3.48-2.46,5.22-.35,.75-.67,1.52-1.11,2.22-.31,.49-.76,1.1-1.36,1.25-.75,.18-1.36-.52-1.8-1.03-.14-.16-.27-.33-.4-.5,.18-.12,.36-.25,.54-.38,2.92-2.25,4.76-5.76,5.01-9.43,.06-.85,.06-1.86-.97-2.08-.77-.17-1.71,.05-2.44,.3-1.61,.55-2.98,1.69-3.88,3.12-.73,1.17-1.07,2.48-1.09,3.8-.23,.08-.42,.28-.42,.59,0,.42,0,.85,0,1.27-.32-1.06-.3-2.27-.24-3.3,.1-1.69,.21-3.49,.78-5.1,.5-1.41,1.54-2.58,2.85-3.29,1.41-.76,3.1-.88,4.62-.41,.74,.23,1.49,.6,2.04,1.16,.6,.61,.74,1.43,.79,2.26,.07,1.32,.13,2.66,.1,4Z"/>
        <path class="cls-5" d="M723.15,158.37c-1,2.69-3.52,10.54-.55,14.61,3.19,4.36,3.04-10.64,1.58-14.61-.18-.48-.85-.47-1.03,0Z"/>
        <path class="cls-5" d="M712.97,155.23c-.87,2.33-3.04,9.1-.47,12.61,2.75,3.77,2.63-9.19,1.37-12.61-.15-.41-.74-.41-.89,0Z"/>
        <path class="cls-9" d="M742.77,117.78c-.6,.37-1.03,.96-1.22,1.64-.33,1.19-.8,3.27-.87,5.53l1.35-.71c.43-.23,.95-.06,1.18,.36,.23,.43,.06,.95-.36,1.18l-2.1,1.11c.13,1.38,.47,2.75,1.13,3.97,1.22,2.24,2.13,3.72,2.75,4.67,.6,.91,1.79,1.21,2.74,.69,2.25-1.23,6.22-3.69,8.02-6.59,2.53-4.07,.22-19.77-12.62-11.84Z"/>
      </g>
      <path class="cls-5" d="M734.55,130.16l-4.18-5.11-9.08,1.59-4.46-6.92-8.29,2.51-6.57-14.2c-.2-.44-.01-.96,.43-1.16,.44-.2,.96-.01,1.16,.43l5.93,12.83,8.1-2.45,4.55,7.05,8.94-1.56,3.92,4.8,7.03-3.72c.43-.23,.95-.06,1.18,.36,.23,.43,.06,.95-.36,1.18l-8.29,4.39Z"/>
      <path class="cls-9" d="M691.51,96.54s1.26,8.17,4.81,15.44c0,0,5.8,.61,3.21-11.69-2.59-12.29-7.25-5.47-8.02-3.76Z"/>
    </g>
  </g>
</svg>