<svg width="26" height="26" viewBox="0 0 26 26" fill="none" xmlns="http://www.w3.org/2000/svg">
<path d="M24.7461 22.366L19.8779 17.4978C19.6582 17.2781 19.3604 17.156 19.0479 17.156H18.252C19.5996 15.4324 20.4004 13.2644 20.4004 10.906C20.4004 5.29565 15.8545 0.749756 10.2441 0.749756C4.63379 0.749756 0.0878906 5.29565 0.0878906 10.906C0.0878906 16.5164 4.63379 21.0623 10.2441 21.0623C12.6025 21.0623 14.7705 20.2615 16.4941 18.9138V19.7097C16.4941 20.0222 16.6162 20.3201 16.8359 20.5398L21.7041 25.408C22.1631 25.8669 22.9053 25.8669 23.3594 25.408L24.7412 24.0261C25.2002 23.5671 25.2002 22.825 24.7461 22.366ZM10.2441 17.156C6.79199 17.156 3.99414 14.363 3.99414 10.906C3.99414 7.45386 6.78711 4.65601 10.2441 4.65601C13.6963 4.65601 16.4941 7.44897 16.4941 10.906C16.4941 14.3582 13.7012 17.156 10.2441 17.156Z" fill="white"/>
</svg>
